<?xml version="1.0" standalone="no"?>
<!DOCTYPE svg PUBLIC "-//W3C//DTD SVG 20010904//EN"
 "http://www.w3.org/TR/2001/REC-SVG-20010904/DTD/svg10.dtd">
<svg version="1.0" xmlns="http://www.w3.org/2000/svg"
 width="700.000000pt" height="700.000000pt" viewBox="0 0 700.000000 700.000000"
 preserveAspectRatio="xMidYMid meet">
<metadata>
Created by potrace 1.14, written by Peter Selinger 2001-2017
</metadata>
<g transform="translate(0.000000,700.000000) scale(0.100000,-0.100000)"
fill="#000000" stroke="none">
<path d="M3355 6954 c-151 -62 -423 -154 -645 -219 -740 -216 -1548 -357
-2420 -420 -313 -23 -295 -1 -287 -358 22 -929 237 -1979 581 -2845 402 -1011
980 -1822 1724 -2416 319 -254 697 -487 1052 -646 94 -43 122 -51 156 -47 46
5 368 160 539 259 989 575 1728 1421 2240 2563 417 930 679 2101 702 3142 l6
262 -35 35 c-31 31 -40 34 -108 40 -41 3 -167 13 -280 21 -1038 80 -2180 325
-2941 630 -61 25 -125 45 -142 44 -18 0 -81 -21 -142 -45z m458 -305 c803
-281 1809 -480 2826 -559 74 -5 135 -11 136 -12 4 -9 -17 -402 -30 -543 -136
-1482 -599 -2794 -1325 -3760 -261 -347 -564 -658 -905 -929 -140 -111 -443
-314 -605 -404 -127 -70 -285 -152 -295 -152 -3 0 -4 60 -3 133 l3 132 55 29
c1334 697 2255 2034 2664 3868 79 354 137 728 172 1110 27 287 21 296 -192
317 -478 47 -1115 149 -1529 246 -364 85 -626 158 -942 262 l-233 77 0 129 c0
119 1 129 18 122 9 -4 93 -34 185 -66z m1475 -2062 l82 -82 -1110 -1110 -1110
-1110 -585 585 c-322 322 -585 590 -585 595 0 6 36 46 80 90 l80 80 478 -478
478 -477 42 0 c24 0 55 6 70 14 15 8 468 456 1007 995 539 540 982 981 985
981 3 0 42 -37 88 -83z"/>
</g>
</svg>
