<?xml version="1.0" encoding="iso-8859-1"?>
<!-- Generator: Adobe Illustrator 19.0.0, SVG Export Plug-In . SVG Version: 6.00 Build 0)  -->
<svg version="1.1" id="Layer_1" xmlns="http://www.w3.org/2000/svg" xmlns:xlink="http://www.w3.org/1999/xlink" x="0px" y="0px"
	 viewBox="0 0 512.001 512.001" style="enable-background:new 0 0 512.001 512.001;" xml:space="preserve">
<path style="fill:#EFF2FA;" d="M256.006,503.935C512.492,392.788,503.943,59.349,503.943,59.349
	C350.048,50.799,256.006,8.051,256.001,8.051c-0.005,0-94.047,42.749-247.942,51.298c0,0-8.55,333.439,247.937,444.585"/>
<path style="fill:#D7DEED;" d="M255.968,8.066C255.252,8.388,161.37,50.831,8.059,59.349c0,0-8.549,333.416,247.909,444.573V8.066z"
	/>
<path style="fill:#C3E678;" d="M256.001,44.951c29.794,11.375,105.18,36.421,212.718,46.118
	c-5.241,79.134-35.951,289.066-212.728,375.237c-89.022-43.287-151.856-122.116-186.884-234.544
	C51.427,175.017,45.345,122.647,43.276,91.07C150.815,81.372,226.206,56.327,256.001,44.951"/>
<path style="fill:#FFFFFF;" d="M218.26,344.294l-79.601-79.601c-3.339-3.339-3.339-8.753,0-12.091l12.088-12.088
	c3.339-3.339,8.753-3.339,12.091,0l67.513,67.513l143.943-143.943c3.339-3.339,8.753-3.339,12.091,0l12.088,12.088
	c3.339,3.339,3.339,8.753,0,12.091L242.443,344.294C235.765,350.972,224.938,350.972,218.26,344.294z"/>
<path style="fill:#A5D76E;" d="M256.001,70.027c31.281,11.285,97.179,31.74,187.299,42.073
	c-4.126,38.756-14.127,96.75-38.326,154.919c-33.099,79.564-83.191,137.672-148.997,172.896
	c-36.785-19.628-68.8-46.365-95.288-79.604c-29.315-36.786-52.574-82.389-69.135-135.542
	c-13.17-42.269-19.693-82.004-22.894-112.664C158.803,101.772,224.715,81.312,256.001,70.027 M256.001,44.951
	C226.206,56.327,150.815,81.372,43.276,91.07c2.069,31.577,8.151,83.948,25.831,140.692
	c35.028,112.429,97.862,191.257,186.885,234.544C432.769,380.136,463.479,170.204,468.72,91.07
	C361.18,81.371,285.794,56.326,256.001,44.951L256.001,44.951z"/>
<path d="M511.956,59.144c-0.107-4.173-3.4-7.567-7.569-7.797c-78.381-4.355-140.698-17.823-179.174-28.355
	c-41.635-11.397-64.937-21.806-65.909-22.244c-2.07-0.932-4.537-0.932-6.607,0c-0.971,0.437-24.274,10.847-65.909,22.243
	C117.081,42.072,50.877,48.943,7.614,51.347c-4.168,0.231-7.461,3.624-7.569,7.797c-0.089,3.457-1.826,85.79,28.138,183.176
	c17.648,57.355,42.699,107.848,74.461,150.078c39.848,52.98,90.371,92.981,150.164,118.893c1.038,0.45,2.119,0.663,3.183,0.663
	c0.007,0,0.013,0,0.02,0c1.063,0,2.145-0.213,3.183-0.663c59.794-25.912,110.316-65.913,150.164-118.893
	c31.761-42.229,56.813-92.722,74.461-150.078C513.782,144.934,512.044,62.6,511.956,59.144z M255.987,457.365
	c-85.084-42.633-145.369-119.315-179.228-227.988c-15.857-50.891-22.331-98.179-24.924-131.064
	C153.828,88.27,226.532,64.537,256.002,53.519c29.468,11.017,102.174,34.748,204.15,44.793
	c-3.104,38.635-12.501,106.465-40.87,174.658C383.559,358.839,328.627,420.859,255.987,457.365z M115.617,382.975
	c-30.636-40.674-54.851-89.432-71.974-144.921C19.389,159.451,16.383,89.216,16.078,66.901
	c120.239-7.635,202.934-35.668,231.908-46.897v19.39C216.984,50.791,144.071,73.932,42.557,83.086
	c-4.333,0.391-7.562,4.166-7.278,8.507c2.215,33.816,8.555,85.997,26.176,142.553c35.097,112.646,97.853,192.372,186.531,237.103
	v20.24C195.722,466.711,151.23,430.257,115.617,382.975z M468.358,238.054c-17.122,55.489-41.338,104.247-71.974,144.921
	c-35.613,47.281-80.104,83.735-132.368,108.514v-20.246c75.751-38.325,132.96-102.923,170.066-192.117
	c31.268-75.162,40.133-149.755,42.634-187.529c0.289-4.342-2.943-8.122-7.278-8.512c-101.507-9.154-174.42-32.294-205.422-43.693
	V20.004c28.969,11.227,111.665,39.262,231.908,46.897C495.619,89.218,492.613,159.451,468.358,238.054z"/>
<path d="M404.142,170.503l-12.088-12.088c-3.129-3.129-7.289-4.852-11.713-4.852c-4.424,0-8.584,1.723-11.713,4.852L230.352,296.69
	l-61.845-61.845c-3.128-3.129-7.289-4.852-11.713-4.852c-4.424,0-8.585,1.723-11.713,4.852l-12.089,12.089
	c-3.129,3.128-4.852,7.289-4.852,11.713c0,4.424,1.723,8.585,4.852,11.713l91.693,91.693c1.565,1.565,3.617,2.348,5.667,2.348
	c2.051,0,4.103-0.782,5.667-2.348L404.141,193.93C410.601,187.471,410.601,176.962,404.142,170.503z M392.807,182.594
	L230.352,345.05l-86.025-86.025c-0.038-0.038-0.156-0.156-0.156-0.378c0-0.222,0.118-0.339,0.156-0.378l12.089-12.089
	c0.105-0.104,0.242-0.156,0.378-0.156c0.137,0,0.274,0.052,0.378,0.156l67.513,67.513c3.13,3.13,8.206,3.13,11.335,0
	l143.943-143.943c0.038-0.038,0.157-0.156,0.378-0.156c0.221,0,0.34,0.118,0.378,0.156l12.088,12.088
	c0.038,0.04,0.156,0.157,0.156,0.378C392.963,182.437,392.845,182.556,392.807,182.594z"/>
<g>
</g>
<g>
</g>
<g>
</g>
<g>
</g>
<g>
</g>
<g>
</g>
<g>
</g>
<g>
</g>
<g>
</g>
<g>
</g>
<g>
</g>
<g>
</g>
<g>
</g>
<g>
</g>
<g>
</g>
</svg>
