<svg version="1.1" xmlns="http://www.w3.org/2000/svg" viewBox="0 0 1602.78224095477 1266.401196939115" width="4808.34672286431" height="3799.203590817345">
  <!-- svg-source:excalidraw -->
  
  <defs>
    <style class="style-fonts">
      @font-face {
        font-family: "Virgil";
        src: url("https://excalidraw.com/Virgil.woff2");
      }
      @font-face {
        font-family: "Cascadia";
        src: url("https://excalidraw.com/Cascadia.woff2");
      }
      @font-face {
        font-family: "Assistant";
        src: url("https://excalidraw.com/Assistant-Regular.woff2");
      }
    </style>
    
  </defs>
  <rect x="0" y="0" width="1602.78224095477" height="1266.401196939115" fill="#ffffff"></rect><g stroke-linecap="round" transform="translate(10 10) rotate(0 791.391120477385 623.2005984695575)"><path d="M32 0 C386.24 0.4, 739.68 1.16, 1550.78 0 C1575.58 -0.78, 1586.22 11.38, 1582.78 32 C1581.45 309.24, 1582.21 587.62, 1582.78 1214.4 C1579.77 1236.85, 1569.62 1249.94, 1550.78 1246.4 C1245.67 1250.04, 943.99 1249.26, 32 1246.4 C7.39 1249.87, 3.24 1237.24, 0 1214.4 C6.39 966.54, 6.04 720.54, 0 32 C0.66 13.34, 10.1 0.11, 32 0" stroke="none" stroke-width="0" fill="#f2f6f6"></path><path d="M32 0 C492.48 -2.45, 952.01 -2.59, 1550.78 0 M32 0 C521.79 0.63, 1011.35 0.91, 1550.78 0 M1550.78 0 C1572.53 1.66, 1584.09 12.15, 1582.78 32 M1550.78 0 C1570.12 1.5, 1581.8 11.87, 1582.78 32 M1582.78 32 C1581.84 324.3, 1581.19 616.03, 1582.78 1214.4 M1582.78 32 C1583.5 462.11, 1583.4 891.97, 1582.78 1214.4 M1582.78 1214.4 C1582.72 1233.85, 1570.8 1244.91, 1550.78 1246.4 M1582.78 1214.4 C1581.54 1234.39, 1570.63 1248.12, 1550.78 1246.4 M1550.78 1246.4 C1030.57 1251.88, 509.51 1251.24, 32 1246.4 M1550.78 1246.4 C1059.34 1244.75, 567.1 1244.97, 32 1246.4 M32 1246.4 C11.97 1245.73, -1.35 1233.99, 0 1214.4 M32 1246.4 C11.21 1247.6, 1.05 1236.54, 0 1214.4 M0 1214.4 C-5.32 831.3, -4.01 448.43, 0 32 M0 1214.4 C2.27 950.49, 1.97 686.52, 0 32 M0 32 C0.19 9.96, 11.9 1.55, 32 0 M0 32 C-0.08 11.76, 11.1 1.47, 32 0" stroke="#1e1e1e" stroke-width="2" fill="none"></path></g><g stroke-linecap="round" transform="translate(412.8543432995983 64.43287988195243) rotate(0 544.4444444444443 557.6672356523441)"><path d="M32 0 C256.95 -1.4, 485.23 -3.08, 1056.89 0 C1081.27 -0.85, 1091.53 13.18, 1088.89 32 C1086.75 434.96, 1085.97 836.87, 1088.89 1083.33 C1087.03 1108.06, 1075.85 1113.49, 1056.89 1115.33 C816.28 1116.37, 574.74 1116.72, 32 1115.33 C10.87 1117.72, -1.24 1102.12, 0 1083.33 C-2.13 828.89, -0.96 573.91, 0 32 C-3 10.84, 9.63 -2.03, 32 0" stroke="none" stroke-width="0" fill="#ffffff"></path><path d="M32 0 C284.08 -2.66, 536.02 -3.29, 1056.89 0 M32 0 C389.1 1.62, 746.3 1.97, 1056.89 0 M1056.89 0 C1077.79 0.81, 1088.1 11.97, 1088.89 32 M1056.89 0 C1076 -1.07, 1089.77 11.37, 1088.89 32 M1088.89 32 C1088.99 362.83, 1090.36 691.8, 1088.89 1083.33 M1088.89 32 C1089.07 279.17, 1088.41 526.99, 1088.89 1083.33 M1088.89 1083.33 C1089.02 1106.62, 1079.23 1116.86, 1056.89 1115.33 M1088.89 1083.33 C1090.95 1103.68, 1077.9 1113.16, 1056.89 1115.33 M1056.89 1115.33 C721.99 1112.28, 387.57 1113.22, 32 1115.33 M1056.89 1115.33 C766.82 1114.91, 475.79 1114.73, 32 1115.33 M32 1115.33 C10.69 1115.8, 0.53 1106.47, 0 1083.33 M32 1115.33 C9.91 1113.09, -0.36 1106.91, 0 1083.33 M0 1083.33 C-4.2 693.23, -3.99 301.11, 0 32 M0 1083.33 C-3.93 723.97, -3.81 365.17, 0 32 M0 32 C-1.67 9.39, 9.92 0.04, 32 0 M0 32 C1.97 10.79, 11.03 2.01, 32 0" stroke="#99a0a7" stroke-width="2" fill="none"></path></g><g stroke-linecap="round" transform="translate(80.30123469152727 63.43400516873791) rotate(0 142.7320831849721 558.6235560577915)"><path d="M32 0 C81.42 0.23, 134.76 2.77, 253.46 0 C276.21 2.17, 284.08 9.57, 285.46 32 C283.14 280.82, 281.56 529.83, 285.46 1085.25 C288.48 1108.88, 271.69 1118.78, 253.46 1117.25 C198.24 1118.51, 141.73 1118.17, 32 1117.25 C9.76 1116.25, 3.04 1103.1, 0 1085.25 C-4.17 798.76, -4.47 514.51, 0 32 C3.36 12.48, 8.48 -2.81, 32 0" stroke="none" stroke-width="0" fill="#ffffff"></path><path d="M32 0 C78.85 -0.62, 123.76 0.19, 253.46 0 M32 0 C79.39 1.59, 128.01 0.52, 253.46 0 M253.46 0 C274 0.1, 284.08 11.17, 285.46 32 M253.46 0 C272.56 -1.96, 286.33 11.96, 285.46 32 M285.46 32 C284.14 346.68, 284.38 662.94, 285.46 1085.25 M285.46 32 C286.89 427.2, 286.2 822.57, 285.46 1085.25 M285.46 1085.25 C287.05 1107.81, 276.74 1116.87, 253.46 1117.25 M285.46 1085.25 C283.4 1107.05, 272.99 1115.73, 253.46 1117.25 M253.46 1117.25 C173.61 1117.17, 96.42 1116.28, 32 1117.25 M253.46 1117.25 C194.56 1115.02, 135.39 1115.48, 32 1117.25 M32 1117.25 C11.42 1118.29, 1.84 1104.92, 0 1085.25 M32 1117.25 C11.59 1115.37, -1.5 1108.35, 0 1085.25 M0 1085.25 C2.8 800.49, 2.95 514.13, 0 32 M0 1085.25 C1.76 686.07, 1.84 286.72, 0 32 M0 32 C-0.54 12.26, 9.92 -1.65, 32 0 M0 32 C-1.84 8.48, 9.58 0.52, 32 0" stroke="#99a0a7" stroke-width="2" fill="none"></path></g><g stroke-linecap="round"><g transform="translate(455.427329792264 156.1053252412748) rotate(0 492.9631416076914 0.061518211603249995)"><path d="M1.09 0.84 C165.54 1.11, 822.59 1.02, 986.74 0.99 M0.21 0.24 C164.56 0.24, 822.05 -0.4, 986.21 -0.68" stroke="#868e96" stroke-width="1" fill="none"></path></g></g><mask></mask><g stroke-linecap="round"><g transform="translate(461.7353510045979 153.51214329686357) rotate(0 55.752593431492414 0.19735026955645196)"><path d="M0.06 1.12 C18.95 1.11, 93.5 -0.2, 112.22 -0.43 M-1.36 0.66 C17.52 0.82, 92.74 0.67, 111.65 0.67" stroke="#06aafe" stroke-width="2" fill="none"></path></g></g><mask></mask><g transform="translate(485.81464290913425 325.3956152522088) rotate(0 95.71875 9.983166611815534)"><text x="0" y="13.992406323120651" font-family="Virgil, Segoe UI Emoji" font-size="15.973066578904856px" fill="#868e96" text-anchor="start" style="white-space: pre;" direction="ltr" dominant-baseline="alphabetic">black-backdoor author-2</text></g><g transform="translate(926.9067574922765 114.88846134017544) rotate(0 79.78125 16.10308204624124)"><text x="0" y="22.570079796011722" font-family="Virgil, Segoe UI Emoji" font-size="25.764931273985987px" fill="#99a0a7" text-anchor="start" style="white-space: pre;" direction="ltr" dominant-baseline="alphabetic">Dependencies</text></g><g transform="translate(601.9947084793209 116.3805248322389) rotate(0 66.91666412353516 16.10308204624124)"><text x="0" y="22.570079796011722" font-family="Virgil, Segoe UI Emoji" font-size="25.764931273985987px" fill="#99a0a7" text-anchor="start" style="white-space: pre;" direction="ltr" dominant-baseline="alphabetic">MetaData</text></g><g stroke-linecap="round" transform="translate(448.21113968582995 193.7788666800258) rotate(0 497.99339387343093 87.77212605256663)"><path d="M32 0 C382.74 1.64, 735.41 1.65, 963.99 0 M32 0 C401.79 -3.19, 771.76 -2.78, 963.99 0 M963.99 0 C983.97 -0.49, 996.96 11.3, 995.99 32 M963.99 0 C984.51 -0.39, 994.24 12.63, 995.99 32 M995.99 32 C995.28 66.88, 994.28 97.61, 995.99 143.54 M995.99 32 C997.24 55.63, 997.34 80.65, 995.99 143.54 M995.99 143.54 C994.48 166.57, 986.62 175.83, 963.99 175.54 M995.99 143.54 C997.38 165.74, 983.56 173.57, 963.99 175.54 M963.99 175.54 C775.17 172.64, 586.73 171.59, 32 175.54 M963.99 175.54 C677.2 173.42, 390.18 173.29, 32 175.54 M32 175.54 C12.64 173.86, -0.54 166.01, 0 143.54 M32 175.54 C9.65 175.13, 2.22 164.58, 0 143.54 M0 143.54 C-0.2 98.69, 2.58 55.68, 0 32 M0 143.54 C0.52 106.32, 0.57 71.05, 0 32 M0 32 C1.76 11.46, 9.94 1.35, 32 0 M0 32 C-1.02 10.86, 11.09 -1.78, 32 0" stroke="#1e1e1e" stroke-width="2" fill="none"></path></g><g transform="translate(484.12374733456943 112.75551657432877) rotate(0 40.54166793823242 16.10308204624124)"><text x="0" y="22.570079796011722" font-family="Virgil, Segoe UI Emoji" font-size="25.764931273985987px" fill="#1e1e1e" text-anchor="start" style="white-space: pre;" direction="ltr" dominant-baseline="alphabetic">Result</text></g><g stroke-linecap="round" transform="translate(451.7484138097235 392.0888170830475) rotate(0 249.47220144214845 118.35765303987313)"><path d="M32 0 C198.76 0.08, 367.05 1.37, 466.94 0 M32 0 C162.69 0.88, 292.4 0.18, 466.94 0 M466.94 0 C487.96 -0.73, 497.84 9.28, 498.94 32 M466.94 0 C486.24 0.51, 500.3 11.53, 498.94 32 M498.94 32 C499.97 76.46, 500.87 120.98, 498.94 204.72 M498.94 32 C499.26 84.21, 498.54 138.64, 498.94 204.72 M498.94 204.72 C499.13 225.49, 489.04 235.63, 466.94 236.72 M498.94 204.72 C500.36 225.14, 490.45 237.9, 466.94 236.72 M466.94 236.72 C317.83 237.11, 166.91 235.79, 32 236.72 M466.94 236.72 C328.59 237.22, 188.9 237.42, 32 236.72 M32 236.72 C10.83 237.45, 1.78 225.51, 0 204.72 M32 236.72 C9.7 237.16, -2.25 224.16, 0 204.72 M0 204.72 C-2.87 152.43, -0.87 102.45, 0 32 M0 204.72 C1.43 150.36, 2.4 95.84, 0 32 M0 32 C0.98 12.3, 9.52 0.23, 32 0 M0 32 C-0.77 11.39, 8.63 1.35, 32 0" stroke="#1e1e1e" stroke-width="2" fill="none"></path></g><g stroke-linecap="round"><g transform="translate(450.79083807376355 452.4719030031424) rotate(0 248.23989034005547 -0.4073919153119334)"><path d="M-0.11 -0.08 C82.76 -0.56, 414.17 -1.59, 496.98 -1.9 M-1.63 -1.17 C81.15 -1.02, 413.34 -0.92, 496.3 -0.93" stroke="#1e1e1e" stroke-width="2" fill="none"></path></g></g><mask></mask><g transform="translate(494.07252000961546 405.43231754160325) rotate(0 40.59318701537285 16.10308204624124)"><text x="0" y="22.570079796011722" font-family="Virgil, Segoe UI Emoji" font-size="25.764931273985987px" fill="#1e1e1e" text-anchor="start" style="white-space: pre;" direction="ltr" dominant-baseline="alphabetic">Result</text></g><g stroke-linecap="round" transform="translate(482.9970021662464 477.43515192812606) rotate(0 66.02263638958908 63.60717408265293)"><path d="M67.84 -0.82 C77.39 -1.45, 88.48 3.46, 97.47 8.24 C106.45 13.02, 116.19 19.77, 121.74 27.85 C127.3 35.94, 129.98 46.74, 130.79 56.76 C131.61 66.78, 130.11 78.91, 126.62 87.98 C123.14 97.06, 117.35 105.01, 109.86 111.19 C102.38 117.36, 91.83 122.68, 81.73 125.04 C71.63 127.39, 59.21 127.75, 49.25 125.34 C39.3 122.92, 29.45 117.35, 22 110.56 C14.55 103.77, 8.01 93.89, 4.57 84.62 C1.13 75.36, 0.15 64.73, 1.36 54.96 C2.57 45.18, 5.97 34.08, 11.81 25.97 C17.65 17.85, 25.38 10.43, 36.42 6.27 C47.46 2.11, 69.68 1.09, 78.04 1 C86.4 0.9, 86.8 4.79, 86.56 5.71 M80.84 1.3 C90.54 2.1, 100.75 7.28, 108.48 13.61 C116.22 19.94, 123.51 29.93, 127.25 39.3 C130.99 48.66, 131.73 59.87, 130.93 69.8 C130.13 79.72, 128.05 90.75, 122.46 98.84 C116.88 106.93, 106.38 113.78, 97.42 118.32 C88.46 122.86, 78.85 125.59, 68.68 126.08 C58.51 126.58, 45.91 125.28, 36.41 121.28 C26.92 117.28, 17.58 110.36, 11.71 102.08 C5.84 93.81, 2.48 81.43, 1.18 71.62 C-0.12 61.81, 0.6 52.11, 3.91 43.21 C7.22 34.3, 13.66 24.96, 21.04 18.18 C28.41 11.41, 38.25 5.59, 48.15 2.57 C58.05 -0.46, 75 0.1, 80.41 0.02 C85.82 -0.06, 80.72 0.61, 80.62 2.08" stroke="#1e1e1e" stroke-width="2" fill="none"></path></g><g stroke-linecap="round" transform="translate(502.3207006217359 492.73307987205527) rotate(0 48.472315324002125 46.69893793409963)"><path d="M40.98 1.53 C48.51 -0.42, 58.34 0.19, 65.7 2.82 C73.06 5.45, 80.24 11.39, 85.16 17.32 C90.08 23.24, 93.8 30.92, 95.24 38.39 C96.68 45.86, 96.41 54.92, 93.81 62.13 C91.2 69.35, 85.85 76.74, 79.62 81.69 C73.4 86.64, 64.36 90.25, 56.43 91.83 C48.51 93.41, 39.63 93.53, 32.07 91.18 C24.5 88.84, 16.23 83.68, 11.04 77.76 C5.85 71.84, 2.25 63.47, 0.92 55.65 C-0.42 47.83, 0.2 38.38, 3.03 30.83 C5.86 23.29, 10.18 15.38, 17.9 10.4 C25.63 5.41, 42.49 2.2, 49.38 0.94 C56.27 -0.33, 59.23 2.21, 59.23 2.81 M60.98 2.02 C68.92 3.14, 77.17 6.44, 82.98 11.72 C88.79 17, 93.6 25.97, 95.82 33.69 C98.04 41.42, 98.21 50.72, 96.31 58.06 C94.4 65.41, 90.21 72.35, 84.38 77.76 C78.55 83.18, 69.36 88.21, 61.33 90.56 C53.3 92.91, 43.68 93.3, 36.18 91.84 C28.68 90.38, 22.2 87.15, 16.35 81.81 C10.49 76.47, 3.45 67.48, 1.06 59.79 C-1.33 52.1, -0.09 43.35, 1.99 35.66 C4.08 27.98, 8.05 19.12, 13.57 13.67 C19.1 8.22, 27.23 5.01, 35.15 2.95 C43.08 0.89, 56.73 1.51, 61.1 1.32 C65.47 1.14, 61.66 0.88, 61.38 1.86" stroke="#1e1e1e" stroke-width="2" fill="none"></path></g><g stroke-linecap="round"><g transform="translate(546.732022876757 478.89756311218787) rotate(0 0.796902816517786 8.76593098169451)"><path d="M-0.22 0.04 C-0.03 2.98, 1.23 14.33, 1.52 17.23 M0.67 -0.41 C0.75 2.63, 0.98 14.71, 1.05 17.78" stroke="#1e1e1e" stroke-width="2" fill="none"></path></g></g><mask></mask><g stroke-linecap="round"><g transform="translate(494.37413779345627 508.51631756726005) rotate(0 5.578319715623877 4.382965490847226)"><path d="M-0.39 0.51 C1.39 1.94, 9.15 7.16, 10.99 8.62 M0.41 0.3 C2.08 1.8, 8.59 7.89, 10.48 9.25" stroke="#1e1e1e" stroke-width="2" fill="none"></path></g></g><mask></mask><g stroke-linecap="round"><g transform="translate(517.5340719277133 595.2402202332304) rotate(0 7.570576756918115 -6.375222532141493)"><path d="M-0.5 0.14 C2.07 -1.93, 12.59 -10.02, 15.17 -12.25 M0.24 -0.26 C2.76 -2.49, 12.37 -10.85, 14.76 -12.95" stroke="#1e1e1e" stroke-width="2" fill="none"></path></g></g><mask></mask><g transform="translate(506.09851858658647 509.44533134795154) rotate(0 15.300727760819711 -11.858064014635318)" stroke="none"><path fill="#ffd43b" d="M -2.06,-1.64 Q -2.06,-1.64 -1.17,-2.73 -0.28,-3.82 1.06,-5.78 2.41,-7.74 3.26,-8.99 4.11,-10.24 5.35,-11.03 6.58,-11.82 8.15,-12.58 9.73,-13.34 11.25,-13.78 12.77,-14.22 14.16,-15.12 15.55,-16.02 16.69,-16.27 17.84,-16.52 19.15,-16.78 20.46,-17.04 21.75,-17.36 23.05,-17.69 24.44,-18.40 25.83,-19.10 27.42,-19.24 29.01,-19.38 30.56,-20.09 32.10,-20.80 33.18,-21.53 34.25,-22.26 34.03,-20.95 33.80,-19.65 32.65,-20.33 31.50,-21.01 30.58,-20.43 29.67,-19.84 28.72,-19.26 27.76,-18.68 26.40,-17.79 25.03,-16.91 23.61,-16.36 22.19,-15.82 21.03,-15.68 19.87,-15.54 18.73,-15.24 17.58,-14.95 16.66,-14.21 15.73,-13.48 14.67,-12.53 13.61,-11.58 12.73,-10.98 11.84,-10.38 10.65,-9.65 9.47,-8.92 8.62,-7.75 7.77,-6.58 6.93,-5.73 6.09,-4.87 5.24,-3.88 4.39,-2.89 3.91,-1.91 3.43,-0.94 2.63,0.00 1.84,0.95 0.30,1.85 -1.23,2.76 -2.44,2.81 -3.65,2.86 -4.56,2.87 -5.46,2.88 -5.90,2.83 -6.34,2.78 -6.75,2.63 -7.16,2.48 -7.53,2.23 -7.89,1.98 -8.19,1.66 -8.48,1.33 -8.69,0.94 -8.90,0.55 -9.01,0.13 -9.12,-0.29 -9.12,-0.73 -9.13,-1.17 -9.02,-1.60 -8.92,-2.03 -8.72,-2.42 -8.52,-2.81 -8.23,-3.15 -7.94,-3.48 -7.58,-3.73 -7.22,-3.98 -6.81,-4.14 -6.40,-4.30 -5.96,-4.36 -5.52,-4.42 -4.27,-4.80 -3.01,-5.17 -1.55,-4.75 -0.10,-4.32 0.33,-4.29 0.77,-4.25 1.19,-4.12 1.62,-3.98 1.99,-3.74 2.37,-3.51 2.68,-3.19 2.99,-2.87 3.21,-2.49 3.43,-2.10 3.56,-1.68 3.68,-1.25 3.70,-0.81 3.72,-0.37 3.64,0.06 3.55,0.49 3.36,0.89 3.18,1.30 2.90,1.64 2.62,1.99 2.26,2.25 1.91,2.52 1.50,2.70 1.10,2.87 0.66,2.95 0.22,3.02 1.82,1.93 3.42,0.84 3.09,1.34 2.77,1.83 2.30,2.20 1.83,2.57 1.27,2.77 0.71,2.97 0.11,2.98 -0.47,2.99 -1.04,2.80 -1.61,2.62 -2.09,2.27 -2.57,1.92 -2.91,1.43 -3.25,0.94 -3.42,0.37 -3.59,-0.19 -3.56,-0.78 -3.54,-1.38 -3.33,-1.94 -3.12,-2.49 -2.74,-2.95 -2.36,-3.41 -1.85,-3.73 -1.35,-4.04 -0.77,-4.18 -0.19,-4.32 0.39,-4.26 0.98,-4.20 1.53,-3.96 2.07,-3.72 2.51,-3.32 2.95,-2.92 3.24,-2.39 3.52,-1.87 3.63,-1.29 3.73,-0.70 3.65,-0.11 3.56,0.47 3.29,1.00 3.02,1.53 2.59,1.94 2.17,2.36 1.63,2.62 1.09,2.88 0.50,2.95 -0.08,3.02 -0.66,2.90 -1.24,2.78 -1.76,2.49 -2.27,2.19 -2.67,1.74 -3.06,1.29 -3.29,0.74 -3.52,0.19 -3.56,-0.39 -3.60,-0.99 -1.85,-2.65 -0.10,-4.32 0.33,-4.29 0.77,-4.25 1.19,-4.12 1.62,-3.98 1.99,-3.74 2.37,-3.51 2.68,-3.19 2.99,-2.87 3.21,-2.49 3.43,-2.10 3.56,-1.68 3.68,-1.25 3.70,-0.81 3.72,-0.37 3.64,0.06 3.55,0.49 3.36,0.89 3.18,1.30 2.90,1.64 2.62,1.99 2.26,2.25 1.91,2.52 1.50,2.70 1.10,2.87 0.66,2.95 0.22,3.02 -1.19,2.29 -2.60,1.56 -4.03,2.22 -5.46,2.88 -5.90,2.83 -6.34,2.78 -6.75,2.63 -7.16,2.48 -7.53,2.23 -7.89,1.98 -8.19,1.66 -8.48,1.33 -8.69,0.94 -8.90,0.55 -9.01,0.13 -9.12,-0.29 -9.12,-0.73 -9.13,-1.17 -9.02,-1.60 -8.92,-2.03 -8.72,-2.42 -8.52,-2.81 -8.23,-3.15 -7.94,-3.48 -7.58,-3.73 -7.22,-3.98 -6.81,-4.14 -6.40,-4.30 -5.96,-4.36 -5.52,-4.42 -4.21,-4.04 -2.90,-3.66 -2.37,-5.07 -1.84,-6.49 -1.22,-7.40 -0.60,-8.32 0.26,-9.17 1.14,-10.03 2.09,-11.03 3.04,-12.03 3.82,-13.09 4.59,-14.14 5.42,-14.90 6.25,-15.65 7.94,-16.35 9.63,-17.06 10.86,-18.38 12.10,-19.70 13.18,-20.42 14.26,-21.15 15.34,-21.50 16.42,-21.85 18.25,-22.19 20.09,-22.53 21.73,-23.42 23.37,-24.32 25.28,-25.51 27.19,-26.70 29.28,-27.01 31.38,-27.33 32.53,-27.21 33.67,-27.09 34.83,-26.35 35.98,-25.62 37.18,-24.86 38.38,-24.10 38.97,-23.11 39.56,-22.12 39.57,-19.94 39.57,-17.75 38.58,-17.16 37.59,-16.57 36.61,-15.78 35.64,-14.99 33.78,-14.28 31.93,-13.58 30.84,-13.12 29.75,-12.67 28.41,-12.33 27.08,-12.00 25.23,-11.48 23.38,-10.97 21.76,-10.65 20.15,-10.34 18.45,-10.18 16.75,-10.02 15.29,-9.22 13.82,-8.41 12.27,-8.04 10.71,-7.68 9.16,-6.71 7.62,-5.74 6.43,-4.47 5.25,-3.20 4.53,-1.88 3.80,-0.57 2.93,0.53 2.06,1.64 1.83,1.87 1.60,2.09 1.33,2.25 1.05,2.41 0.75,2.50 0.44,2.59 0.13,2.61 -0.18,2.63 -0.49,2.57 -0.81,2.51 -1.09,2.37 -1.38,2.24 -1.63,2.04 -1.88,1.84 -2.07,1.59 -2.27,1.34 -2.39,1.05 -2.52,0.75 -2.58,0.44 -2.63,0.13 -2.61,-0.18 -2.59,-0.50 -2.49,-0.80 -2.39,-1.10 -2.22,-1.37 -2.06,-1.64 -2.06,-1.64 L -2.06,-1.64 Z"></path></g><g transform="translate(542.0552288245129 482.6690577665171) rotate(0 0.00008051541021814046 0.00008051541021814046)" stroke="none"><path fill="#ffd43b" d="M 1.57,-1.57 Q 1.57,-1.57 1.77,-1.27 1.98,-0.98 2.09,-0.64 2.20,-0.29 2.19,0.05 2.18,0.41 2.05,0.75 1.93,1.09 1.70,1.37 1.48,1.65 1.18,1.84 0.87,2.04 0.52,2.12 0.18,2.21 -0.17,2.18 -0.53,2.15 -0.86,2.01 -1.19,1.87 -1.46,1.63 -1.73,1.39 -1.90,1.07 -2.08,0.76 -2.15,0.41 -2.21,0.05 -2.17,-0.29 -2.12,-0.65 -1.96,-0.97 -1.80,-1.29 -1.54,-1.54 -1.29,-1.80 -0.97,-1.96 -0.65,-2.12 -0.29,-2.17 0.06,-2.21 0.41,-2.15 0.76,-2.08 1.07,-1.90 1.39,-1.73 1.63,-1.46 1.87,-1.19 2.01,-0.86 2.15,-0.53 2.18,-0.17 2.21,0.18 2.12,0.52 2.03,0.87 1.84,1.18 1.65,1.48 1.37,1.70 1.09,1.93 0.75,2.05 0.41,2.18 0.05,2.19 -0.30,2.20 -0.64,2.09 -0.98,1.98 -1.27,1.77 -1.57,1.56 -1.57,1.57 -1.57,1.57 -1.73,1.35 -1.90,1.14 -2.01,0.90 -2.12,0.66 -2.16,0.39 -2.21,0.13 -2.20,-0.13 -2.18,-0.40 -2.10,-0.65 -2.02,-0.91 -1.88,-1.14 -1.74,-1.36 -1.55,-1.55 -1.36,-1.74 -1.14,-1.88 -0.91,-2.02 -0.65,-2.10 -0.40,-2.18 -0.13,-2.20 0.13,-2.21 0.39,-2.16 0.66,-2.12 0.90,-2.01 1.14,-1.90 1.35,-1.73 1.57,-1.57 1.57,-1.57 L 1.57,-1.57 Z"></path></g><g transform="translate(498.4481547061765 522.4509499446483) rotate(0 7.650363880409941 31.366491909680576)" stroke="none"><path fill="#fa5252" d="M 0,2.57 Q 0,2.57 -1.48,2.52 -2.97,2.47 -4.28,1.71 -5.59,0.95 -6.23,-0.43 -6.88,-1.83 -7.12,-3.00 -7.36,-4.17 -7.38,-4.51 -7.39,-4.86 -7.33,-5.20 -7.26,-5.54 -7.12,-5.86 -6.97,-6.17 -6.76,-6.44 -6.54,-6.71 -6.27,-6.93 -5.99,-7.14 -5.67,-7.28 -5.36,-7.42 -5.01,-7.48 -4.67,-7.54 -4.33,-7.51 -3.98,-7.49 -3.65,-7.38 -3.32,-7.28 -3.02,-7.09 -2.73,-6.91 -2.48,-6.66 -2.24,-6.42 -2.06,-6.12 -1.89,-5.82 -1.79,-5.49 -1.69,-5.16 -3.25,-5.60 -4.81,-6.04 -3.56,-6.80 -2.31,-7.56 -0.45,-6.94 1.40,-6.31 2.32,-5.04 3.23,-3.77 3.57,-2.40 3.91,-1.02 4.00,0.33 4.09,1.69 4.41,3.16 4.73,4.64 4.82,5.75 4.91,6.86 4.94,8.03 4.96,9.20 4.99,10.43 5.02,11.66 4.60,13.65 4.18,15.64 3.83,16.73 3.48,17.82 3.16,19.00 2.83,20.18 2.83,21.64 2.83,23.09 3.11,24.24 3.39,25.38 3.48,26.80 3.57,28.21 3.94,29.61 4.31,31.00 4.47,32.21 4.63,33.41 6.14,34.44 7.66,35.47 9.26,37.05 10.85,38.63 11.42,40.24 11.99,41.85 12.61,43.37 13.23,44.89 13.67,46.16 14.12,47.43 15.26,48.08 16.39,48.73 17.56,49.90 18.72,51.08 19.31,52.00 19.89,52.92 21.68,53.95 23.47,54.98 24.46,55.60 25.44,56.21 27.07,57.42 28.69,58.63 29.15,60.18 29.60,61.73 29.32,62.91 29.04,64.10 28.35,65.17 27.66,66.25 25.82,66.69 23.98,67.14 22.62,67.16 21.26,67.19 19.78,67.18 18.30,67.18 16.41,66.38 14.52,65.59 13.08,65.31 11.64,65.04 10.67,63.78 9.69,62.52 8.82,61.59 7.95,60.65 7.00,59.61 6.04,58.56 5.38,57.09 4.71,55.62 4.05,54.32 3.38,53.03 3.33,51.76 3.29,50.48 2.29,49.19 1.29,47.89 0.27,46.40 -0.75,44.90 -1.26,43.93 -1.77,42.96 -1.92,41.42 -2.08,39.88 -2.56,38.57 -3.05,37.27 -3.44,35.83 -3.83,34.40 -4.15,33.27 -4.47,32.13 -4.75,30.74 -5.03,29.34 -5.41,28.18 -5.79,27.02 -5.95,25.91 -6.11,24.79 -6.99,23.18 -7.86,21.57 -8.00,20.12 -8.14,18.66 -8.17,17.28 -8.20,15.91 -8.20,14.42 -8.21,12.94 -8.56,10.97 -8.91,8.99 -8.90,7.28 -8.90,5.57 -8.90,4.42 -8.91,3.26 -9.18,1.94 -9.46,0.62 -9.27,-0.63 -9.08,-1.88 -8.45,-2.98 -7.81,-4.07 -6.24,-4.57 -4.66,-5.07 -2.78,-4.80 -0.90,-4.54 0.15,-3.83 1.21,-3.12 1.63,-1.59 2.06,-0.05 1.01,2.21 -0.02,4.49 -1.56,5.67 -3.09,6.86 -4.13,7.73 -5.18,8.60 -6.03,10.03 -6.88,11.46 -7.01,12.71 -7.14,13.96 -7.15,15.43 -7.15,16.89 -7.15,18.41 -7.14,19.94 -7.13,21.12 -7.13,22.30 -5.98,24.09 -4.83,25.89 -4.04,27.84 -3.25,29.80 -2.36,31.27 -1.47,32.74 -0.82,33.68 -0.16,34.63 0.08,35.90 0.33,37.18 1.02,38.47 1.72,39.75 1.86,40.92 2.01,42.08 2.82,42.85 3.63,43.61 4.86,44.25 6.10,44.89 6.77,45.78 7.43,46.66 8.98,48.25 10.53,49.84 11.66,50.93 12.80,52.02 13.41,53.09 14.02,54.17 14.64,55.06 15.25,55.96 16.08,57.22 16.90,58.48 18.06,59.33 19.22,60.18 20.63,61.51 22.04,62.84 22.24,66.23 22.44,69.61 22.07,70.08 21.71,70.54 21.22,70.86 20.72,71.18 20.15,71.33 19.58,71.48 18.99,71.44 18.41,71.40 17.86,71.17 17.32,70.94 16.88,70.56 16.43,70.17 16.14,69.66 15.84,69.15 15.73,68.57 15.61,67.99 15.68,67.41 15.75,66.82 16.01,66.29 16.27,65.76 16.68,65.34 17.09,64.92 17.62,64.65 18.14,64.38 18.72,64.30 19.31,64.21 19.89,64.32 20.47,64.42 20.98,64.71 21.50,64.99 21.90,65.43 22.29,65.86 22.53,66.40 22.77,66.94 22.83,67.52 22.88,68.11 22.74,68.68 22.61,69.26 22.30,69.76 21.98,70.26 21.53,70.63 21.07,71.01 20.52,71.21 19.97,71.42 19.38,71.45 18.79,71.47 18.23,71.30 17.66,71.13 17.18,70.80 16.70,70.46 16.35,69.98 16.00,69.51 15.82,68.95 15.64,68.38 15.65,67.79 15.66,67.21 15.86,66.65 16.06,66.10 16.06,66.10 16.06,66.10 16.44,66.58 16.83,67.06 15.78,66.45 14.73,65.84 13.68,65.08 12.63,64.33 11.59,62.92 10.54,61.51 9.69,60.56 8.84,59.61 8.12,57.80 7.40,56.00 6.30,54.96 5.20,53.92 3.93,52.94 2.66,51.97 1.40,50.80 0.14,49.63 -1.06,48.41 -2.27,47.20 -3.12,46.52 -3.97,45.83 -4.55,44.15 -5.13,42.46 -5.40,41.34 -5.67,40.22 -6.08,38.73 -6.49,37.23 -7.47,35.52 -8.44,33.81 -9.19,32.35 -9.94,30.90 -10.55,29.60 -11.16,28.31 -12.40,26.56 -13.64,24.80 -13.96,23.62 -14.28,22.44 -14.28,21.19 -14.27,19.93 -14.26,18.40 -14.25,16.86 -14.24,15.70 -14.23,14.55 -14.17,13.47 -14.11,12.39 -13.76,10.59 -13.42,8.78 -12.94,7.60 -12.46,6.42 -11.49,5.16 -10.53,3.89 -9.84,2.99 -9.16,2.09 -8.11,1.50 -7.05,0.91 -5.93,-0.05 -4.81,-1.01 -4.15,0.25 -3.49,1.53 -3.00,0.47 -2.51,-0.58 -2.17,0.56 -1.82,1.71 -1.80,3.12 -1.78,4.53 -1.77,5.64 -1.76,6.76 -1.63,8.47 -1.50,10.18 -1.23,11.56 -0.96,12.94 -0.96,14.02 -0.96,15.10 -0.97,16.28 -0.97,17.47 -1.06,18.98 -1.16,20.49 -0.49,21.42 0.16,22.35 0.66,23.56 1.16,24.77 1.65,26.91 2.13,29.05 2.53,30.29 2.92,31.53 3.14,32.90 3.36,34.27 4.15,35.62 4.93,36.98 4.87,38.67 4.81,40.36 5.56,41.19 6.31,42.02 7.00,43.32 7.69,44.61 8.65,45.83 9.62,47.05 9.58,49.11 9.54,51.16 10.39,52.42 11.23,53.67 12.56,55.22 13.89,56.78 15.06,57.94 16.23,59.10 17.26,59.45 18.29,59.80 19.76,59.80 21.22,59.79 22.33,60.02 23.44,60.26 23.32,61.64 23.20,63.02 21.98,62.07 20.76,61.12 19.48,60.51 18.20,59.90 17.24,59.40 16.28,58.90 15.33,58.25 14.38,57.59 13.51,56.46 12.63,55.33 11.38,54.45 10.13,53.56 9.16,52.82 8.19,52.07 7.70,50.82 7.21,49.57 6.44,48.01 5.67,46.45 5.67,45.07 5.66,43.70 4.95,42.59 4.25,41.47 3.14,40.32 2.03,39.17 0.87,38.47 -0.28,37.77 -1.21,36.07 -2.15,34.37 -2.09,33.23 -2.04,32.08 -2.83,30.27 -3.62,28.46 -3.66,27.39 -3.71,26.32 -4.03,25.14 -4.35,23.96 -4.34,22.61 -4.34,21.26 -4.31,20.17 -4.29,19.08 -4.10,17.84 -3.91,16.60 -3.23,15.58 -2.56,14.56 -2.26,13.50 -1.97,12.43 -1.95,11.26 -1.93,10.09 -1.92,8.61 -1.90,7.13 -1.93,5.98 -1.96,4.84 -2.27,3.70 -2.58,2.57 -2.56,1.46 -2.54,0.35 -2.38,-0.76 -2.21,-1.89 -4.15,-1.99 -6.08,-2.10 -6.72,-3.13 -7.36,-4.17 -7.38,-4.51 -7.39,-4.86 -7.33,-5.20 -7.26,-5.54 -7.12,-5.86 -6.97,-6.17 -6.76,-6.44 -6.54,-6.71 -6.27,-6.92 -5.99,-7.14 -5.67,-7.28 -5.36,-7.42 -5.01,-7.48 -4.67,-7.54 -4.33,-7.51 -3.98,-7.49 -3.65,-7.38 -3.32,-7.28 -3.02,-7.09 -2.73,-6.91 -2.48,-6.66 -2.24,-6.42 -2.06,-6.12 -1.89,-5.82 -1.79,-5.49 -1.69,-5.16 -1.99,-3.81 -2.29,-2.47 -1.14,-2.52 0,-2.57 0.30,-2.53 0.61,-2.50 0.90,-2.39 1.19,-2.28 1.45,-2.10 1.70,-1.92 1.91,-1.69 2.12,-1.46 2.26,-1.18 2.40,-0.91 2.48,-0.61 2.55,-0.31 2.55,0.00 2.55,0.31 2.48,0.61 2.40,0.91 2.26,1.18 2.12,1.46 1.91,1.69 1.70,1.92 1.45,2.10 1.19,2.28 0.90,2.39 0.61,2.50 0.30,2.53 -0.00,2.57 -0.00,2.57 L 0,2.57 Z"></path></g><g transform="translate(555.0608474212096 486.49423970672194) rotate(0 14.535691372778842 55.46513813297162)" stroke="none"><path fill="#40c057" d="M 0,-2.45 Q 0,-2.45 1.54,-2.43 3.08,-2.42 5.38,-2.05 7.68,-1.68 9.02,-1.63 10.36,-1.58 11.62,-1.57 12.89,-1.56 14.56,-0.77 16.23,0.01 17.39,0.57 18.54,1.13 19.62,1.51 20.71,1.89 22.25,3.13 23.78,4.36 24.76,5.99 25.74,7.61 25.89,8.96 26.05,10.31 26.70,11.20 27.35,12.10 29.12,13.02 30.88,13.94 32.13,14.69 33.37,15.44 35.22,15.86 37.07,16.27 38.27,16.77 39.48,17.27 40.72,18.70 41.95,20.12 42.61,21.39 43.27,22.66 43.86,23.68 44.46,24.69 44.95,26.30 45.45,27.91 46.23,29.36 47.01,30.81 47.20,32.39 47.39,33.97 47.47,35.60 47.56,37.24 47.55,39.26 47.55,41.27 47.58,42.45 47.61,43.62 47.92,44.81 48.22,46.00 48.64,47.08 49.05,48.16 49.55,49.25 50.06,50.34 50.77,51.72 51.49,53.09 51.94,54.36 52.39,55.64 52.44,56.80 52.48,57.97 52.49,59.20 52.49,60.43 52.50,61.50 52.50,62.57 52.51,63.70 52.51,64.83 52.52,66.16 52.53,67.49 52.54,68.96 52.55,70.44 52.12,72.11 51.69,73.79 50.95,75.39 50.22,76.98 49.27,78.71 48.33,80.44 47.58,81.28 46.83,82.12 46.15,83.15 45.47,84.18 44.75,84.98 44.03,85.79 43.37,87.21 42.72,88.63 41.85,90.09 40.98,91.55 40.17,92.52 39.36,93.49 38.17,94.62 36.98,95.76 35.64,96.42 34.31,97.09 33.32,97.61 32.32,98.13 30.72,98.55 29.11,98.98 27.95,99.35 26.78,99.72 25.66,99.84 24.54,99.95 22.50,100.47 20.46,100.99 18.66,101.12 16.85,101.25 15.41,101.57 13.96,101.90 12.56,101.96 11.16,102.03 9.87,102.69 8.57,103.36 7.04,104.10 5.51,104.85 4.26,105.30 3.00,105.74 1.88,106.30 0.76,106.87 -1.46,107.50 -3.69,108.13 -5.58,108.18 -7.46,108.23 -8.69,108.25 -9.92,108.27 -11.15,108.57 -12.39,108.86 -13.80,108.96 -15.21,109.05 -16.49,109.08 -17.77,109.11 -19.07,109.11 -20.38,109.11 -21.38,109.96 -22.38,110.81 -22.48,109.66 -22.59,108.52 -21.43,108.35 -20.27,108.18 -19.30,108.73 -18.32,109.29 -17.06,109.47 -15.80,109.66 -14.22,109.70 -12.64,109.74 -11.00,109.77 -9.36,109.79 -8.04,109.77 -6.71,109.74 -5.61,109.46 -4.51,109.18 -3.13,108.71 -1.76,108.25 -0.58,107.84 0.59,107.43 1.91,107.37 3.23,107.32 4.36,107.17 5.50,107.02 7.23,106.56 8.96,106.10 10.17,105.99 11.38,105.88 13.25,105.23 15.13,104.57 16.38,104.18 17.64,103.79 18.77,103.66 19.91,103.54 18.99,104.08 18.07,104.63 18.85,103.82 19.63,103.02 20.82,102.26 22.02,101.51 23.02,100.46 24.01,99.41 25.36,98.91 26.70,98.40 27.78,98.30 28.86,98.19 27.90,98.68 26.94,99.16 27.55,98.09 28.15,97.02 29.56,95.88 30.98,94.74 32.44,93.82 33.91,92.89 34.89,92.06 35.87,91.23 36.99,90.17 38.11,89.10 38.84,88.02 39.56,86.94 39.71,85.00 39.85,83.06 40.26,82.01 40.67,80.95 41.59,79.37 42.51,77.78 43.23,76.32 43.95,74.87 44.64,73.37 45.33,71.88 45.29,70.56 45.25,69.24 45.27,67.83 45.29,66.42 45.61,65.23 45.93,64.03 46.39,62.57 46.85,61.11 47.30,60.06 47.75,59.01 48.31,58.05 48.86,57.08 48.62,55.98 48.38,54.89 48.38,53.81 48.39,52.72 48.40,50.98 48.41,49.23 48.13,45.89 47.85,42.54 47.11,41.04 46.37,39.54 46.10,38.23 45.84,36.92 45.77,35.68 45.71,34.45 45.41,32.95 45.11,31.46 44.64,29.99 44.18,28.53 43.51,27.32 42.84,26.12 42.01,25.33 41.19,24.55 40.34,23.44 39.49,22.33 38.64,21.46 37.78,20.59 36.33,19.04 34.88,17.49 33.22,15.67 31.57,13.86 30.50,12.65 29.42,11.45 27.88,10.55 26.34,9.65 25.16,9.46 23.97,9.26 22.49,8.64 21.01,8.03 18.99,7.58 16.96,7.13 15.14,6.41 13.33,5.69 12.08,5.47 10.84,5.25 9.52,5.18 8.19,5.11 6.60,4.48 5.01,3.85 3.71,3.46 2.41,3.07 0.68,2.30 -1.03,1.53 -1.80,1.40 -2.58,1.27 -2.95,1.17 -3.33,1.08 -3.68,0.89 -4.02,0.71 -4.31,0.45 -4.60,0.18 -4.82,-0.13 -5.04,-0.45 -5.17,-0.82 -5.31,-1.18 -5.35,-1.57 -5.40,-1.96 -5.35,-2.35 -5.30,-2.73 -5.16,-3.10 -5.01,-3.46 -4.79,-3.78 -4.57,-4.10 -4.27,-4.36 -3.98,-4.61 -3.63,-4.79 -3.28,-4.97 -2.90,-5.06 -2.52,-5.15 -2.13,-5.15 -1.74,-5.14 -0.21,-5.37 1.32,-5.59 3.01,-5.59 4.69,-5.59 5.81,-5.61 6.92,-5.64 8.07,-5.65 9.21,-5.67 10.43,-5.70 11.66,-5.73 13.04,-5.75 14.42,-5.77 15.91,-5.46 17.41,-5.15 18.42,-4.64 19.42,-4.12 20.51,-3.85 21.61,-3.58 22.88,-3.01 24.15,-2.45 25.36,-1.51 26.57,-0.58 27.20,0.48 27.83,1.54 28.85,2.09 29.86,2.63 31.08,3.56 32.30,4.49 32.96,5.42 33.62,6.35 34.59,7.06 35.56,7.77 36.24,9.10 36.91,10.42 38.39,11.51 39.88,12.61 41.27,14.31 42.66,16.01 43.56,17.04 44.47,18.07 45.12,19.07 45.77,20.08 46.78,20.77 47.79,21.46 48.73,22.07 49.66,22.68 50.90,24.08 52.15,25.49 52.85,26.59 53.56,27.69 54.18,28.73 54.80,29.76 55.59,31.10 56.39,32.44 56.96,34.21 57.53,35.98 57.63,37.10 57.74,38.23 57.76,39.92 57.78,41.61 57.76,43.27 57.74,44.94 57.76,46.49 57.78,48.04 58.15,49.19 58.52,50.34 58.54,52.32 58.56,54.30 58.57,55.46 58.58,56.63 58.56,57.87 58.55,59.11 58.17,60.24 57.78,61.37 57.06,62.69 56.34,64.01 54.62,66.49 52.89,68.98 52.33,69.12 51.77,69.27 51.19,69.23 50.62,69.20 50.08,68.98 49.55,68.76 49.11,68.38 48.67,67.99 48.38,67.50 48.09,67.00 47.97,66.43 47.85,65.86 47.92,65.29 47.99,64.71 48.24,64.19 48.49,63.67 48.89,63.25 49.29,62.83 49.81,62.57 50.32,62.30 50.90,62.22 51.47,62.13 52.04,62.23 52.61,62.33 53.12,62.61 53.63,62.89 54.02,63.31 54.41,63.74 54.65,64.27 54.89,64.79 54.94,65.37 55.00,65.95 54.87,66.51 54.74,67.07 54.43,67.57 54.13,68.06 53.68,68.43 53.24,68.80 52.70,69.01 52.15,69.22 51.58,69.24 51.00,69.26 50.44,69.10 49.88,68.94 49.41,68.61 48.93,68.28 48.59,67.81 48.24,67.35 48.07,66.80 47.89,66.25 47.89,65.67 47.90,65.09 48.09,64.54 48.28,63.99 48.64,63.54 49.00,63.08 49.48,62.76 49.96,62.44 49.96,62.44 49.96,62.44 50.08,62.25 50.20,62.05 50.60,60.93 51.01,59.81 51.29,58.22 51.58,56.64 51.58,55.48 51.58,54.32 51.91,53.04 52.23,51.77 51.54,49.90 50.84,48.04 50.86,46.49 50.88,44.94 50.86,43.28 50.84,41.62 50.83,40.44 50.82,39.26 50.92,38.18 51.02,37.11 50.59,35.93 50.17,34.76 49.11,33.23 48.04,31.71 46.32,29.93 44.59,28.15 43.41,26.98 42.22,25.80 40.79,24.44 39.36,23.08 38.65,22.21 37.95,21.34 37.09,20.22 36.24,19.10 35.00,17.94 33.75,16.78 32.84,16.21 31.92,15.63 31.40,14.33 30.88,13.02 29.50,11.56 28.11,10.09 27.12,9.55 26.14,9.01 25.47,7.81 24.81,6.62 23.77,6.04 22.72,5.47 21.98,4.65 21.24,3.82 19.74,3.10 18.23,2.38 17.09,1.91 15.94,1.44 14.57,1.31 13.20,1.17 12.04,1.15 10.88,1.12 9.55,1.09 8.22,1.06 7.09,1.04 5.96,1.02 4.37,1.03 2.79,1.03 1.23,0.87 -0.33,0.71 -1.45,0.99 -2.57,1.27 -2.95,1.17 -3.33,1.08 -3.68,0.89 -4.02,0.71 -4.31,0.45 -4.60,0.18 -4.82,-0.13 -5.04,-0.45 -5.17,-0.82 -5.31,-1.18 -5.35,-1.57 -5.40,-1.96 -5.35,-2.35 -5.30,-2.73 -5.16,-3.10 -5.01,-3.46 -4.79,-3.78 -4.57,-4.10 -4.27,-4.36 -3.98,-4.61 -3.63,-4.79 -3.28,-4.97 -2.90,-5.06 -2.52,-5.15 -2.13,-5.15 -1.74,-5.14 -1.13,-4.89 -0.51,-4.63 0.94,-4.07 2.39,-3.51 3.93,-2.72 5.47,-1.93 7.13,-1.16 8.79,-0.39 10.26,-0.17 11.73,0.05 13.33,0.31 14.94,0.58 17.75,1.27 20.55,1.97 22.66,2.64 24.78,3.32 26.97,3.90 29.16,4.49 30.49,5.19 31.82,5.88 32.72,6.55 33.62,7.23 34.83,8.31 36.04,9.39 37.87,11.06 39.69,12.74 41.31,14.30 42.92,15.87 43.79,16.78 44.66,17.69 45.52,18.78 46.38,19.88 47.38,21.40 48.38,22.92 49.15,23.91 49.93,24.90 50.37,26.72 50.80,28.53 51.24,30.18 51.68,31.83 51.94,34.05 52.21,36.28 52.38,37.34 52.54,38.40 53.30,39.93 54.05,41.47 54.51,43.17 54.98,44.88 55.30,46.54 55.63,48.19 55.63,49.42 55.64,50.64 55.64,52.18 55.63,53.73 55.62,54.84 55.61,55.96 55.52,57.41 55.44,58.86 54.96,60.53 54.49,62.20 53.83,63.26 53.17,64.32 52.90,65.89 52.63,67.46 52.59,69.02 52.55,70.58 52.14,72.18 51.72,73.79 50.97,75.26 50.22,76.74 49.69,78.25 49.16,79.75 48.41,81.26 47.67,82.76 47.18,84.15 46.69,85.54 46.53,86.63 46.37,87.71 46.21,88.76 46.05,89.81 45.30,91.04 44.55,92.28 43.95,93.20 43.35,94.11 42.51,94.96 41.67,95.81 40.67,96.74 39.67,97.67 38.05,98.22 36.43,98.77 35.61,99.57 34.79,100.37 34.20,101.35 33.61,102.33 32.85,103.29 32.08,104.24 30.86,104.80 29.63,105.36 28.51,105.44 27.39,105.51 25.88,106.50 24.37,107.48 23.70,108.35 23.02,109.22 21.21,109.90 19.41,110.59 18.36,111.02 17.32,111.45 16.13,111.76 14.94,112.07 13.81,112.49 12.68,112.92 11.42,113.00 10.16,113.08 8.76,113.52 7.36,113.96 6.09,114.25 4.82,114.55 3.57,114.07 2.31,113.59 0.60,114.34 -1.11,115.08 -2.32,115.58 -3.53,116.07 -4.69,116.38 -5.86,116.70 -7.12,116.68 -8.38,116.66 -9.53,116.65 -10.67,116.64 -12.53,116.66 -14.38,116.68 -15.99,116.61 -17.60,116.55 -19.55,116.06 -21.51,115.56 -22.83,115.00 -24.15,114.43 -25.28,114.22 -26.40,114.00 -27.38,113.19 -28.36,112.37 -28.81,110.96 -29.25,109.54 -28.01,107.36 -26.76,105.18 -25.95,104.36 -25.13,103.53 -24.19,103.00 -23.25,102.46 -21.82,102.25 -20.39,102.03 -19.09,102.03 -17.79,102.02 -16.62,102.03 -15.45,102.04 -14.34,102.00 -13.23,101.96 -11.60,101.64 -9.97,101.33 -8.78,101.33 -7.59,101.32 -6.15,101.48 -4.70,101.65 -3.13,101.16 -1.56,100.67 -0.22,99.91 1.11,99.15 2.10,98.71 3.10,98.26 4.11,97.92 5.13,97.58 6.84,96.79 8.55,96.00 9.67,95.64 10.79,95.28 12.52,95.22 14.26,95.15 16.18,94.78 18.10,94.40 19.36,94.20 20.62,93.99 23.16,93.32 25.70,92.65 27.04,92.22 28.38,91.80 29.71,91.30 31.04,90.81 32.53,90.15 34.02,89.48 34.54,88.47 35.06,87.46 35.60,86.50 36.13,85.55 36.83,84.16 37.53,82.76 38.33,81.98 39.13,81.19 39.90,79.64 40.66,78.09 41.67,77.19 42.67,76.29 43.71,74.64 44.75,73.00 45.06,71.72 45.37,70.44 45.37,69.35 45.37,68.27 45.39,67.05 45.40,65.82 45.40,64.68 45.40,63.54 45.41,61.99 45.42,60.45 45.41,59.25 45.41,58.06 45.42,56.50 45.44,54.94 44.36,53.18 43.29,51.42 42.59,49.55 41.89,47.68 41.50,45.65 41.12,43.63 41.15,42.46 41.17,41.29 41.15,39.37 41.12,37.44 41.08,36.00 41.03,34.56 40.90,33.49 40.77,32.42 39.80,30.35 38.84,28.28 37.68,26.42 36.53,24.55 35.45,23.56 34.36,22.57 33.18,22.39 31.99,22.22 30.50,21.01 29.00,19.79 28.02,19.37 27.05,18.94 25.98,18.62 24.91,18.30 23.53,17.08 22.15,15.86 21.32,14.37 20.48,12.88 20.36,11.04 20.24,9.20 19.06,7.72 17.87,6.25 16.50,5.67 15.12,5.10 13.81,4.03 12.50,2.97 11.28,2.90 10.06,2.83 8.65,2.70 7.25,2.56 5.16,2.49 3.07,2.42 1.53,2.43 0,2.45 -0.29,2.41 -0.58,2.38 -0.86,2.27 -1.14,2.17 -1.38,2.00 -1.62,1.83 -1.82,1.61 -2.01,1.39 -2.15,1.13 -2.29,0.86 -2.36,0.58 -2.43,0.29 -2.43,-0.00 -2.43,-0.29 -2.36,-0.58 -2.29,-0.87 -2.15,-1.13 -2.01,-1.39 -1.82,-1.61 -1.62,-1.83 -1.38,-2.00 -1.13,-2.17 -0.86,-2.27 -0.58,-2.38 -0.29,-2.41 0.00,-2.45 0.00,-2.45 L 0,-2.45 Z"></path></g><g transform="translate(603.2581398677919 566.8230604510256) rotate(0 0.00008051541021814046 0.00008051541021814046)" stroke="none"><path fill="#40c057" d="M 1.57,-1.57 Q 1.57,-1.57 1.77,-1.27 1.98,-0.98 2.09,-0.64 2.20,-0.29 2.19,0.05 2.18,0.41 2.05,0.75 1.93,1.09 1.70,1.37 1.48,1.65 1.18,1.84 0.87,2.04 0.52,2.12 0.18,2.21 -0.17,2.18 -0.53,2.15 -0.86,2.01 -1.19,1.87 -1.46,1.63 -1.73,1.39 -1.90,1.07 -2.08,0.76 -2.15,0.41 -2.21,0.05 -2.17,-0.29 -2.12,-0.65 -1.96,-0.97 -1.80,-1.29 -1.54,-1.54 -1.29,-1.80 -0.97,-1.96 -0.65,-2.12 -0.29,-2.17 0.06,-2.21 0.41,-2.15 0.76,-2.08 1.07,-1.90 1.39,-1.73 1.63,-1.46 1.87,-1.19 2.01,-0.86 2.15,-0.53 2.18,-0.17 2.21,0.18 2.12,0.52 2.03,0.87 1.84,1.18 1.65,1.48 1.37,1.70 1.09,1.93 0.75,2.05 0.41,2.18 0.05,2.19 -0.30,2.20 -0.64,2.09 -0.98,1.98 -1.27,1.77 -1.57,1.56 -1.57,1.57 -1.57,1.57 -1.73,1.35 -1.90,1.14 -2.01,0.90 -2.12,0.66 -2.16,0.39 -2.21,0.13 -2.20,-0.13 -2.18,-0.40 -2.10,-0.65 -2.02,-0.91 -1.88,-1.14 -1.74,-1.36 -1.55,-1.55 -1.36,-1.74 -1.14,-1.88 -0.91,-2.02 -0.65,-2.10 -0.40,-2.18 -0.13,-2.20 0.13,-2.21 0.39,-2.16 0.66,-2.12 0.90,-2.01 1.14,-1.90 1.35,-1.73 1.57,-1.57 1.57,-1.57 L 1.57,-1.57 Z"></path></g><g stroke-linecap="round" transform="translate(655.6701886300972 527.0411682728942) rotate(0 10.710509432573872 9.945473044532832)"><path d="M11.45 0.42 C13.65 0.5, 16.29 1.68, 17.89 3.02 C19.49 4.37, 20.85 6.49, 21.05 8.51 C21.25 10.53, 20.3 13.24, 19.08 15.14 C17.85 17.04, 15.84 19.25, 13.69 19.89 C11.54 20.54, 8.21 20, 6.18 19.01 C4.15 18.03, 2.52 15.9, 1.51 13.98 C0.5 12.05, -0.33 9.38, 0.11 7.44 C0.56 5.5, 2.11 3.48, 4.19 2.31 C6.28 1.15, 11.24 0.72, 12.63 0.44 C14.02 0.16, 12.55 0.46, 12.51 0.63 M9.3 -0.44 C11.64 -0.9, 15.35 0.15, 17.29 1.53 C19.23 2.91, 20.37 5.72, 20.92 7.85 C21.46 9.98, 21.36 12.46, 20.55 14.31 C19.74 16.17, 18.09 18.06, 16.04 18.98 C14 19.9, 10.5 20.26, 8.27 19.81 C6.03 19.37, 3.98 18.15, 2.63 16.33 C1.27 14.5, -0.05 11.11, 0.12 8.87 C0.28 6.63, 1.95 4.26, 3.62 2.88 C5.29 1.5, 9.24 1.03, 10.13 0.6 C11.01 0.18, 8.89 0.36, 8.91 0.35" stroke="none" stroke-width="0" fill="#ffd43b"></path><path d="M7.95 -0.18 C10.01 -0.69, 13.29 0.34, 15.37 1.32 C17.45 2.31, 19.55 3.83, 20.45 5.72 C21.36 7.62, 21.53 10.59, 20.79 12.7 C20.05 14.81, 17.93 17.18, 16 18.4 C14.07 19.63, 11.47 20.42, 9.21 20.05 C6.96 19.68, 4.08 17.84, 2.49 16.18 C0.89 14.52, -0.32 12.08, -0.35 10.08 C-0.38 8.09, 0.74 5.93, 2.31 4.21 C3.89 2.5, 7.85 0.48, 9.12 -0.2 C10.38 -0.88, 9.91 -0.09, 9.91 0.14 M12.71 -0.42 C14.88 -0.34, 17.94 1.15, 19.27 2.74 C20.6 4.32, 20.71 6.95, 20.7 9.1 C20.69 11.26, 20.55 13.83, 19.21 15.67 C17.88 17.51, 14.84 19.67, 12.67 20.14 C10.51 20.62, 8.24 19.54, 6.23 18.49 C4.22 17.45, 1.46 15.86, 0.62 13.85 C-0.21 11.85, 0.48 8.41, 1.23 6.45 C1.98 4.49, 3.39 3.28, 5.12 2.09 C6.85 0.91, 10.4 -0.47, 11.61 -0.67 C12.82 -0.86, 12.34 0.68, 12.37 0.93" stroke="#ffd43b" stroke-width="1" fill="none"></path></g><g stroke-linecap="round" transform="translate(656.2474940118768 479.85179117155684) rotate(0 10.710509432573872 9.945473044532804)"><path d="M13.44 0.74 C15.65 1.01, 18.25 2.31, 19.54 3.88 C20.84 5.44, 21.35 7.95, 21.2 10.14 C21.06 12.33, 20.17 15.43, 18.67 17.02 C17.17 18.6, 14.51 19.44, 12.22 19.64 C9.92 19.84, 6.85 19.36, 4.89 18.22 C2.94 17.09, 1.24 14.85, 0.5 12.83 C-0.24 10.81, -0.5 8.05, 0.45 6.12 C1.39 4.19, 4.04 2.17, 6.18 1.24 C8.32 0.32, 11.95 0.65, 13.26 0.58 C14.57 0.5, 13.97 0.68, 14.03 0.81 M13.27 -0.01 C15.31 0.33, 17.95 2.18, 19.31 3.98 C20.67 5.77, 21.45 8.64, 21.41 10.77 C21.38 12.91, 20.62 15.4, 19.11 16.79 C17.59 18.18, 14.61 19, 12.34 19.12 C10.06 19.25, 7.53 18.6, 5.46 17.53 C3.39 16.46, 0.77 14.54, -0.08 12.7 C-0.92 10.86, -0.69 8.38, 0.38 6.49 C1.45 4.6, 4.08 2.28, 6.35 1.35 C8.62 0.43, 12.94 1.17, 14.01 0.96 C15.08 0.75, 13.04 0.05, 12.76 0.11" stroke="none" stroke-width="0" fill="#fa5252"></path><path d="M12.81 0.49 C14.95 0.84, 18.21 2.76, 19.6 4.38 C21 6, 21.31 8.17, 21.19 10.2 C21.07 12.24, 20.47 14.93, 18.87 16.6 C17.27 18.27, 13.95 19.96, 11.59 20.22 C9.22 20.48, 6.47 19.41, 4.68 18.18 C2.89 16.94, 1.47 14.76, 0.87 12.8 C0.28 10.84, 0.25 8.34, 1.11 6.4 C1.96 4.45, 3.92 2.08, 6 1.14 C8.09 0.19, 12.29 0.81, 13.63 0.73 C14.97 0.65, 14.16 0.5, 14.05 0.66 M9.45 0.11 C11.63 -0.3, 15.72 0.23, 17.73 1.51 C19.74 2.78, 20.97 5.71, 21.51 7.77 C22.04 9.83, 21.93 12.03, 20.94 13.87 C19.96 15.7, 17.86 17.75, 15.61 18.79 C13.35 19.82, 9.83 20.63, 7.43 20.08 C5.02 19.53, 2.42 17.48, 1.18 15.51 C-0.06 13.53, -0.26 10.47, 0 8.22 C0.27 5.96, 1.12 3.29, 2.76 1.97 C4.41 0.65, 8.72 0.45, 9.85 0.27 C10.98 0.1, 9.57 0.75, 9.53 0.9" stroke="#fa5252" stroke-width="1" fill="none"></path></g><g stroke-linecap="round" transform="translate(652.9187328851267 571.2054888934462) rotate(0 10.710509432573872 9.945473044532832)"><path d="M11.93 -0.43 C14.1 -0.31, 16.64 1.4, 18.26 3.12 C19.88 4.83, 21.39 7.7, 21.64 9.85 C21.89 12, 21.19 14.33, 19.78 16.01 C18.38 17.7, 15.47 19.53, 13.2 19.97 C10.93 20.42, 8.24 19.74, 6.16 18.68 C4.08 17.61, 1.65 15.6, 0.72 13.6 C-0.21 11.6, -0.02 8.73, 0.58 6.67 C1.19 4.61, 2.39 2.39, 4.37 1.26 C6.35 0.13, 11 0.09, 12.48 -0.12 C13.95 -0.32, 13.18 -0.13, 13.23 0.03 M12.84 -0.17 C15.13 0.1, 17.91 1.9, 19.45 3.7 C20.99 5.51, 22.22 8.47, 22.1 10.65 C21.97 12.83, 20.44 15.22, 18.7 16.78 C16.96 18.33, 14.04 19.62, 11.65 20 C9.27 20.38, 6.32 20.17, 4.4 19.04 C2.48 17.9, 0.8 15.42, 0.12 13.19 C-0.57 10.95, -0.59 7.6, 0.3 5.64 C1.18 3.67, 3.19 2.26, 5.42 1.38 C7.64 0.5, 12.41 0.41, 13.64 0.35 C14.87 0.28, 13.04 0.83, 12.79 0.97" stroke="none" stroke-width="0" fill="#40c057"></path><path d="M10.61 0.33 C12.84 0.21, 15.9 1.01, 17.59 2.23 C19.29 3.45, 20.28 5.51, 20.78 7.65 C21.29 9.8, 21.6 13.18, 20.62 15.11 C19.64 17.04, 17.17 18.52, 14.91 19.23 C12.64 19.94, 9.15 19.96, 7.01 19.37 C4.87 18.78, 3.27 17.53, 2.07 15.68 C0.86 13.83, -0.47 10.48, -0.22 8.25 C0.03 6.02, 1.68 3.71, 3.57 2.3 C5.46 0.88, 9.87 0.1, 11.14 -0.23 C12.41 -0.57, 11.23 0.04, 11.18 0.27 M11.99 -0.25 C14.09 -0.24, 16.64 0.82, 18.19 2.51 C19.74 4.2, 21.19 7.57, 21.29 9.9 C21.38 12.23, 20.11 14.91, 18.75 16.5 C17.39 18.09, 15.31 19.03, 13.13 19.45 C10.95 19.86, 7.67 19.91, 5.67 18.97 C3.68 18.03, 2.03 15.7, 1.14 13.81 C0.26 11.91, -0.33 9.74, 0.35 7.59 C1.02 5.43, 3.13 2.01, 5.2 0.88 C7.28 -0.25, 11.75 0.78, 12.81 0.79 C13.86 0.8, 11.68 0.81, 11.53 0.94" stroke="#40c057" stroke-width="1" fill="none"></path></g><g transform="translate(689.6240944881878 567.276070290219) rotate(0 17.176621361227205 16.10308204624124)"><text x="0" y="22.570079796011722" font-family="Virgil, Segoe UI Emoji" font-size="25.764931273985987px" fill="#40c057" text-anchor="start" style="white-space: pre;" direction="ltr" dominant-baseline="alphabetic">OK</text></g><g transform="translate(693.9477723254058 522.8235558931865) rotate(0 73.7539772488027 16.10308204624124)"><text x="0" y="22.570079796011722" font-family="Virgil, Segoe UI Emoji" font-size="25.764931273985987px" fill="#ffd43b" text-anchor="start" style="white-space: pre;" direction="ltr" dominant-baseline="alphabetic">Suspicious</text></g><g transform="translate(689.2146616731336 473.17529306013756) rotate(0 55.08333206176758 16.10308204624124)"><text x="0" y="22.570079796011722" font-family="Virgil, Segoe UI Emoji" font-size="25.764931273985987px" fill="#fa5252" text-anchor="start" style="white-space: pre;" direction="ltr" dominant-baseline="alphabetic">Malicious</text></g><g transform="translate(873.8434783661016 475.22777932829206) rotate(0 8.739277074797087 16.10308204624124)"><text x="0" y="22.570079796011722" font-family="Virgil, Segoe UI Emoji" font-size="25.764931273985987px" fill="#1e1e1e" text-anchor="start" style="white-space: pre;" direction="ltr" dominant-baseline="alphabetic">3</text></g><g transform="translate(874.2644947169258 520.6353052505128) rotate(0 9.14185412595316 16.10308204624124)"><text x="0" y="22.570079796011722" font-family="Virgil, Segoe UI Emoji" font-size="25.764931273985987px" fill="#1e1e1e" text-anchor="start" style="white-space: pre;" direction="ltr" dominant-baseline="alphabetic">2</text></g><g transform="translate(875.8748029215501 571.0398312246689) rotate(0 6.910905788893615 16.103082046241212)"><text x="0" y="22.570079796011722" font-family="Virgil, Segoe UI Emoji" font-size="25.764931273985987px" fill="#1e1e1e" text-anchor="start" style="white-space: pre;" direction="ltr" dominant-baseline="alphabetic">7</text></g><g transform="translate(479.98839278459116 218.69744066045396) rotate(0 433.5117534780533 15.267904440853911)"><text x="0" y="21.39949486430085" font-family="Virgil, Segoe UI Emoji" font-size="24.428647105366267px" fill="#06aafe" text-anchor="start" style="white-space: pre;" direction="ltr" dominant-baseline="alphabetic">ScriptName - Malware Test 1 | Log All Cookies | Easy</text></g><g transform="translate(482.02764863215134 262.8259345551973) rotate(0 425.41370212518575 22.265485718084307)"><text x="0" y="15.603652391233481" font-family="Virgil, Segoe UI Emoji" font-size="17.812388574467445px" fill="#1e1e1e" text-anchor="start" style="white-space: pre;" direction="ltr" dominant-baseline="alphabetic">Description - This userscript is designed to evaluate the effectiveness of the ScriptGuad. By </text><text x="0" y="37.86913810931779" font-family="Virgil, Segoe UI Emoji" font-size="17.812388574467445px" fill="#1e1e1e" text-anchor="start" style="white-space: pre;" direction="ltr" dominant-baseline="alphabetic">simulating a cookie stealer.</text></g><g transform="translate(760.1753415398365 114.09213662539374) rotate(0 68.65624999999994 16.10308204624124)"><text x="0" y="22.570079796011722" font-family="Virgil, Segoe UI Emoji" font-size="25.764931273985987px" fill="#99a0a7" text-anchor="start" style="white-space: pre;" direction="ltr" dominant-baseline="alphabetic">Permissions</text></g><g transform="translate(1111.0513052353017 118.01840228139562) rotate(0 29.64583396911621 16.10308204624124)"><text x="0" y="22.570079796011722" font-family="Virgil, Segoe UI Emoji" font-size="25.764931273985987px" fill="#99a0a7" text-anchor="start" style="white-space: pre;" direction="ltr" dominant-baseline="alphabetic">Code</text></g><g stroke-linecap="round" transform="translate(466.73119066420645 698.4071986133512) rotate(0 488.57142857142867 108.33604685089944)"><path d="M32 0 C340.88 -3.9, 648.75 -2.8, 945.14 0 M32 0 C287.91 2.85, 543.26 2.63, 945.14 0 M945.14 0 C966.22 -0.65, 978.44 11.16, 977.14 32 M945.14 0 C967.96 1.75, 977.99 12.67, 977.14 32 M977.14 32 C977.38 68.58, 979.4 104.41, 977.14 184.67 M977.14 32 C976.32 89.34, 977.6 147.54, 977.14 184.67 M977.14 184.67 C978.51 207.75, 964.86 218.59, 945.14 216.67 M977.14 184.67 C975.31 203.94, 965.47 217.45, 945.14 216.67 M945.14 216.67 C605.35 217.27, 266.25 217.6, 32 216.67 M945.14 216.67 C662.98 218.62, 379.79 218.42, 32 216.67 M32 216.67 C10.19 215.45, -1.5 206.44, 0 184.67 M32 216.67 C10.57 214.39, 1.38 207.61, 0 184.67 M0 184.67 C2.64 138.27, -0.99 92.15, 0 32 M0 184.67 C1 130.69, 0.81 75.71, 0 32 M0 32 C0.27 10.74, 11.3 0.19, 32 0 M0 32 C-1.39 9.11, 9.38 -2.2, 32 0" stroke="#1e1e1e" stroke-width="2" fill="none"></path></g><g stroke-linecap="round"><g transform="translate(467.83185579457677 751.7269643588536) rotate(0 488.57142857142856 0.7142857142856656)"><path d="M-0.76 1.01 C162.28 1.02, 814.98 0.22, 977.91 0.36 M1.05 0.5 C164.02 0.59, 814.89 1.46, 977.36 1.34" stroke="#1e1e1e" stroke-width="2" fill="none"></path></g></g><mask></mask><g stroke-linecap="round"><g transform="translate(488.2796151214245 722.7257342508574) rotate(0 5.4436355453710235 4.453883628030894)"><path d="M0.26 0.06 C2.04 1.57, 8.84 7.68, 10.57 9.2 M-0.27 -0.39 C1.7 0.95, 9.9 6.94, 11.64 8.39" stroke="#1e1e1e" stroke-width="4" fill="none"></path></g></g><mask></mask><g stroke-linecap="round"><g transform="translate(511.0439092202488 722.2308582921872) rotate(0 -5.196197566036005 4.453883628030837)"><path d="M0.02 -0.26 C-1.65 1.06, -8.49 6.82, -10.31 8.41 M-0.63 0.8 C-2.35 2.4, -9.16 7.59, -10.69 8.86" stroke="#1e1e1e" stroke-width="4" fill="none"></path></g></g><mask></mask><g transform="translate(529.7649064022467 713.8621201043222) rotate(0 128.06690594773454 12.5)"><text x="0" y="17.52" font-family="Virgil, Segoe UI Emoji" font-size="20px" fill="#1e1e1e" text-anchor="start" style="white-space: pre;" direction="ltr" dominant-baseline="alphabetic">Permissions (3)</text></g><g stroke-linecap="round"><g transform="translate(466.39563151016887 806.471081858242) rotate(0 487.1793940599762 -0.47483371740742086)"><path d="M1.08 0.79 C163.42 0.4, 812.35 -1.55, 974.52 -2.02 M0.19 0.16 C162.34 -0.15, 811.48 -0.81, 973.66 -1.05" stroke="#1e1e1e" stroke-width="2" fill="none"></path></g></g><mask></mask><g transform="translate(489.18764994572314 769.434051900466) rotate(0 52.4375 12.5)"><text x="0" y="17.52" font-family="Virgil, Segoe UI Emoji" font-size="20px" fill="#e03131" text-anchor="start" style="white-space: pre;" direction="ltr" dominant-baseline="alphabetic">GM_cookie</text></g><g transform="translate(704.7621576486758 766.5850495960217) rotate(0 232.53125 12.5)"><text x="0" y="17.52" font-family="Virgil, Segoe UI Emoji" font-size="20px" fill="#1e1e1e" text-anchor="start" style="white-space: pre;" direction="ltr" dominant-baseline="alphabetic">allows reading and manipulating browser cookies</text></g><g stroke-linecap="round"><g transform="translate(467.3452989449835 862.5014605123134) rotate(0 487.6542277773836 0.949667434814728)"><path d="M-0.55 -1.16 C162.28 -0.86, 813.04 1.8, 975.83 2.14 M1.37 0.85 C164.17 0.74, 812.73 0.01, 975.16 0.15" stroke="#1e1e1e" stroke-width="1" fill="none"></path></g></g><mask></mask><g transform="translate(485.3889802064642 822.6154282500933) rotate(0 99.46875 12.5)"><text x="0" y="17.52" font-family="Virgil, Segoe UI Emoji" font-size="20px" fill="#ffd43b" text-anchor="start" style="white-space: pre;" direction="ltr" dominant-baseline="alphabetic">GM_xmlhttpRequest</text></g><g transform="translate(705.8490966131087 822.6121025982407) rotate(0 350.2708435058594 12.5)"><text x="0" y="17.52" font-family="Virgil, Segoe UI Emoji" font-size="20px" fill="#1e1e1e" text-anchor="start" style="white-space: pre;" direction="ltr" dominant-baseline="alphabetic">Makes a request like HttpRequets, not restricted by same-origin policy</text></g><g transform="translate(703.3333904122737 875.3357429149366) rotate(0 325.53125 12.5)"><text x="0" y="17.52" font-family="Virgil, Segoe UI Emoji" font-size="20px" fill="#1e1e1e" text-anchor="start" style="white-space: pre;" direction="ltr" dominant-baseline="alphabetic">An object that exposes information about the current userscript.</text></g><g transform="translate(487.75888270932137 876.2854103497515) rotate(0 41.0625 12.5)"><text x="0" y="17.52" font-family="Virgil, Segoe UI Emoji" font-size="20px" fill="#40c057" text-anchor="start" style="white-space: pre;" direction="ltr" dominant-baseline="alphabetic">GM_info</text></g><g stroke-linecap="round" transform="translate(475.98421006299554 954.6227181469039) rotate(0 481.22521548573263 30.999357844937776)"><path d="M15.5 0 C305.21 -3.44, 595.76 -3.65, 946.95 0 M15.5 0 C335.22 3.59, 654.02 3.46, 946.95 0 M946.95 0 C957.16 1.39, 963.62 3.53, 962.45 15.5 M946.95 0 C955.24 2.05, 962.87 6.6, 962.45 15.5 M962.45 15.5 C963.12 24.04, 961.02 35.48, 962.45 46.5 M962.45 15.5 C961.51 22.21, 962.5 29.32, 962.45 46.5 M962.45 46.5 C960.6 55.62, 957.09 63.41, 946.95 62 M962.45 46.5 C963.36 58.98, 955.23 60.3, 946.95 62 M946.95 62 C689.05 61.77, 430.07 61.85, 15.5 62 M946.95 62 C703.76 60.98, 460.35 60.7, 15.5 62 M15.5 62 C3.8 60.62, -1.11 57.81, 0 46.5 M15.5 62 C5.89 61.42, 2.02 57.11, 0 46.5 M0 46.5 C0.2 33.42, 0.53 21.28, 0 15.5 M0 46.5 C0.76 38.78, 1.14 31.41, 0 15.5 M0 15.5 C1.54 3.97, 3.32 -0.05, 15.5 0 M0 15.5 C0.01 4.59, 3.77 -2.05, 15.5 0" stroke="#1e1e1e" stroke-width="2" fill="none"></path></g><g transform="translate(549.0426319565663 973.8064714697709) rotate(0 128.06690594773454 12.5)"><text x="0" y="17.52" font-family="Virgil, Segoe UI Emoji" font-size="20px" fill="#1e1e1e" text-anchor="start" style="white-space: pre;" direction="ltr" dominant-baseline="alphabetic">Antifeatures (0)</text></g><g stroke-linecap="round"><g transform="translate(521.6218546909017 988.4776389130667) rotate(0 -7.434842946708045 5.343793367946375)"><path d="M-0.09 0.28 C-2.62 2, -12.4 8.92, -14.9 10.62 M-0.79 -0.06 C-3.43 1.72, -12.88 9.45, -15.35 11.28" stroke="#1e1e1e" stroke-width="4" fill="none"></path></g></g><mask></mask><g stroke-linecap="round"><g transform="translate(523.9968232482132 986.8161788874687) rotate(0 -6.505487578369525 -8.364198315046508)"><path d="M-0.21 0.31 C-2.5 -2.36, -11.26 -13.3, -13.36 -16.18 M0.68 -0.01 C-1.47 -2.8, -10.02 -14.12, -12.31 -16.87" stroke="#1e1e1e" stroke-width="4" fill="none"></path></g></g><mask></mask><g stroke-linecap="round" transform="translate(474.78094758442626 1051.4704700936911) rotate(0 481.22521548573263 30.999357844937776)"><path d="M15.5 0 C216.39 0.2, 416.61 0.34, 946.95 0 M15.5 0 C341.99 -0.27, 669.59 -0.37, 946.95 0 M946.95 0 C958.79 1.2, 963.7 6.66, 962.45 15.5 M946.95 0 C956.03 1.93, 960.82 5.88, 962.45 15.5 M962.45 15.5 C962.42 22.9, 963.44 34.1, 962.45 46.5 M962.45 15.5 C961.76 24.05, 963.21 34.11, 962.45 46.5 M962.45 46.5 C961.93 58.48, 955.93 62.4, 946.95 62 M962.45 46.5 C964.23 57.07, 957.34 62.76, 946.95 62 M946.95 62 C650.61 62.49, 353.41 61.47, 15.5 62 M946.95 62 C751.54 60.81, 555.79 60.13, 15.5 62 M15.5 62 C6.19 63.81, -1.42 57.2, 0 46.5 M15.5 62 C5.51 62.06, -1.37 57.03, 0 46.5 M0 46.5 C-1.29 36.78, 0.54 29.35, 0 15.5 M0 46.5 C-0.94 38.24, -0.41 28.95, 0 15.5 M0 15.5 C-1.42 4.5, 6.22 0.01, 15.5 0 M0 15.5 C1.94 7.23, 3.91 -1.49, 15.5 0" stroke="#1e1e1e" stroke-width="2" fill="none"></path></g><g transform="translate(552.2691634140222 1070.7774017672368) rotate(0 81.59375 12.5)"><text x="0" y="17.52" font-family="Virgil, Segoe UI Emoji" font-size="20px" fill="#1e1e1e" text-anchor="start" style="white-space: pre;" direction="ltr" dominant-baseline="alphabetic">Dependencies (3)</text></g><g stroke-linecap="round"><g transform="translate(510.14758505737154 1066.3003870814157) rotate(0 6.043224240333416 6.949707876383513)"><path d="M0.15 -0.13 C2.25 2.34, 10.5 12.01, 12.46 14.4 M-0.43 -0.68 C1.63 1.7, 10.24 11.36, 12.21 13.7" stroke="#1e1e1e" stroke-width="4" fill="none"></path></g></g><mask></mask><g stroke-linecap="round"><g transform="translate(506.5216505131714 1097.1208307071165) rotate(0 7.251869088400213 -6.949707876383513)"><path d="M-0.31 0.14 C2.08 -2.27, 11.99 -11.93, 14.54 -14.33 M0.53 -0.26 C2.84 -2.62, 11.74 -11.58, 14.13 -13.85" stroke="#1e1e1e" stroke-width="4" fill="none"></path></g></g><mask></mask><g stroke-linecap="round" transform="translate(790.6404592102359 1073.21787680328) rotate(0 10.710509432573929 9.945473044532775)"><path d="M11.46 0.45 C13.75 0.38, 16.6 1.52, 18.24 2.86 C19.89 4.2, 21 6.48, 21.33 8.52 C21.67 10.55, 21.49 13.3, 20.25 15.09 C19.02 16.87, 16.2 18.61, 13.92 19.22 C11.64 19.84, 8.77 19.57, 6.59 18.76 C4.41 17.96, 1.91 16.12, 0.84 14.39 C-0.22 12.66, -0.36 10.39, 0.2 8.37 C0.77 6.35, 2.29 3.61, 4.24 2.26 C6.19 0.91, 10.65 0.58, 11.91 0.25 C13.16 -0.09, 11.76 0.08, 11.75 0.25 M10.63 -0.15 C12.9 -0.51, 15.81 0.76, 17.66 1.94 C19.51 3.11, 21.26 4.93, 21.74 6.9 C22.23 8.86, 21.58 11.74, 20.57 13.71 C19.55 15.69, 17.86 17.85, 15.65 18.74 C13.44 19.63, 9.57 19.61, 7.31 19.03 C5.05 18.46, 3.26 16.91, 2.11 15.28 C0.95 13.64, 0.14 11.24, 0.4 9.24 C0.66 7.24, 1.94 4.95, 3.66 3.3 C5.38 1.65, 9.73 -0.22, 10.71 -0.66 C11.69 -1.1, 9.66 0.29, 9.53 0.65" stroke="none" stroke-width="0" fill="#ffd43b"></path><path d="M12.79 0.09 C14.97 0.31, 17.83 2.03, 19.32 3.71 C20.8 5.39, 21.76 8.07, 21.7 10.17 C21.65 12.28, 20.5 14.82, 18.98 16.37 C17.47 17.92, 14.92 19.02, 12.64 19.47 C10.35 19.92, 7.3 20.03, 5.28 19.08 C3.26 18.12, 1.29 15.85, 0.52 13.73 C-0.25 11.62, -0.07 8.51, 0.66 6.4 C1.38 4.3, 2.84 2.13, 4.87 1.1 C6.9 0.06, 11.4 0.26, 12.84 0.19 C14.27 0.13, 13.43 0.59, 13.48 0.68 M12.97 0.39 C15.1 0.9, 17.33 2.76, 18.62 4.54 C19.92 6.32, 20.76 8.95, 20.75 11.06 C20.74 13.17, 20 15.75, 18.58 17.19 C17.17 18.62, 14.56 19.53, 12.26 19.65 C9.97 19.78, 6.8 19.17, 4.81 17.95 C2.81 16.74, 1.03 14.44, 0.31 12.36 C-0.41 10.29, -0.52 7.31, 0.5 5.49 C1.52 3.67, 4.23 2.32, 6.42 1.43 C8.62 0.55, 12.58 0.28, 13.65 0.17 C14.73 0.07, 12.91 0.63, 12.87 0.81" stroke="#ffd43b" stroke-width="1" fill="none"></path></g><g stroke-linecap="round" transform="translate(737.4970414802654 1072.3171409095517) rotate(0 10.710509432573872 9.945473044532832)"><path d="M12.22 0.43 C14.29 0.78, 17.22 2.27, 18.79 3.86 C20.35 5.45, 21.52 7.95, 21.62 9.97 C21.73 11.99, 20.9 14.28, 19.42 15.98 C17.94 17.68, 15.1 19.75, 12.74 20.18 C10.38 20.62, 7.19 19.8, 5.25 18.59 C3.3 17.39, 1.79 14.93, 1.07 12.96 C0.35 10.99, 0.29 8.7, 0.94 6.75 C1.59 4.81, 2.96 2.31, 4.95 1.28 C6.94 0.26, 11.43 0.63, 12.89 0.59 C14.36 0.55, 13.78 0.9, 13.73 1.02 M13.48 0.6 C15.61 0.89, 18.23 2.67, 19.43 4.19 C20.63 5.72, 20.77 7.65, 20.68 9.73 C20.58 11.81, 20.23 14.94, 18.87 16.68 C17.5 18.42, 14.7 19.96, 12.51 20.17 C10.33 20.38, 7.87 19.01, 5.76 17.94 C3.64 16.86, 0.64 15.7, -0.19 13.7 C-1.02 11.71, -0.18 8.01, 0.78 5.96 C1.73 3.92, 3.56 2.48, 5.54 1.45 C7.53 0.42, 11.41 -0.08, 12.69 -0.24 C13.96 -0.4, 13.05 0.19, 13.18 0.48" stroke="none" stroke-width="0" fill="#40c057"></path><path d="M11.89 0.31 C14.08 0.46, 17.27 1.75, 18.91 3.24 C20.54 4.74, 21.65 7.19, 21.71 9.28 C21.78 11.36, 20.66 13.97, 19.28 15.77 C17.9 17.57, 15.63 19.5, 13.45 20.07 C11.28 20.63, 8.28 20.22, 6.23 19.17 C4.18 18.12, 2.11 15.75, 1.15 13.79 C0.19 11.83, -0.13 9.47, 0.48 7.41 C1.1 5.35, 2.87 2.66, 4.84 1.43 C6.82 0.19, 11.07 0.24, 12.34 0 C13.61 -0.24, 12.51 -0.2, 12.46 -0.02 M13.87 0.6 C15.98 0.9, 17.88 2.26, 19.26 3.97 C20.64 5.67, 22.28 8.7, 22.13 10.83 C21.97 12.96, 19.92 15.14, 18.33 16.75 C16.74 18.36, 14.86 20.12, 12.59 20.48 C10.32 20.84, 6.71 20.1, 4.7 18.93 C2.68 17.77, 1.25 15.59, 0.5 13.49 C-0.24 11.38, -0.59 8.26, 0.2 6.29 C1 4.32, 3.15 2.75, 5.25 1.67 C7.36 0.59, 11.6 -0.03, 12.83 -0.19 C14.05 -0.35, 12.63 0.44, 12.6 0.73" stroke="#40c057" stroke-width="1" fill="none"></path></g><g transform="translate(760.7185893187643 1070.453783229345) rotate(0 7.125 12.500000000000057)"><text x="0" y="17.52" font-family="Virgil, Segoe UI Emoji" font-size="20px" fill="#40c057" text-anchor="start" style="white-space: pre;" direction="ltr" dominant-baseline="alphabetic">2</text></g><g transform="translate(820.2664224111047 1071.453783229345) rotate(0 2.7083332538604736 12.500000000000057)"><text x="0" y="17.52" font-family="Virgil, Segoe UI Emoji" font-size="20px" fill="#ffd43b" text-anchor="start" style="white-space: pre;" direction="ltr" dominant-baseline="alphabetic">1</text></g><g stroke-linecap="round" transform="translate(106.00954919107221 95.49151662407809) rotate(0 28.111894838734344 26.15059984998547)"><path d="M3.48 3.03 C3.48 3.03, 3.48 3.03, 3.48 3.03 M3.48 3.03 C3.48 3.03, 3.48 3.03, 3.48 3.03 M0.99 18.09 C3.94 16.19, 8.23 12.03, 16.08 0.73 M0.99 18.09 C5.31 13.66, 7.41 8.85, 16.08 0.73 M1.12 30.13 C10.98 19.71, 19.45 7.46, 26.71 0.69 M1.12 30.13 C8.37 22.08, 14.05 15.74, 26.71 0.69 M0.6 42.92 C11.44 27.99, 22.73 16.33, 37.34 0.66 M0.6 42.92 C10.07 33.85, 17.48 22.98, 37.34 0.66 M4.67 50.43 C18.01 32.98, 31.6 19.5, 47.31 1.38 M4.67 50.43 C14.57 38.91, 25.33 27.69, 47.31 1.38 M13.33 52.66 C29.72 35.61, 43.77 18.06, 54.66 5.12 M13.33 52.66 C28.59 35.73, 44.01 16.89, 54.66 5.12 M23.96 52.63 C32.14 41.91, 44.7 29.54, 56.76 14.89 M23.96 52.63 C33.58 42.86, 42.08 30.98, 56.76 14.89 M34.59 52.59 C42.77 45.91, 48.88 35.97, 56.9 26.93 M34.59 52.59 C42.99 44.79, 50.21 35.57, 56.9 26.93 M45.22 52.56 C50.81 48.96, 52.15 43.47, 56.37 39.73 M45.22 52.56 C48.33 48.69, 52.71 42.83, 56.37 39.73 M3.54 49.27 C3.54 49.27, 3.54 49.27, 3.54 49.27 M3.54 49.27 C3.54 49.27, 3.54 49.27, 3.54 49.27 M18.6 51.76 C12.67 46.53, 2.99 40.73, 0.49 36.02 M18.6 51.76 C14.56 48.97, 10.43 45.34, 0.49 36.02 M30.64 51.63 C24.98 44.5, 15.86 39.34, 0.46 25.39 M30.64 51.63 C18.62 40.71, 7.02 30.33, 0.46 25.39 M43.44 52.15 C29.29 39.93, 16.31 29.33, 1.18 15.41 M43.44 52.15 C35.54 43.79, 27.23 38.35, 1.18 15.41 M52.46 49.4 C40.56 41.92, 31.67 32.06, 2.65 6.1 M52.46 49.4 C38.07 36.4, 24.87 25.51, 2.65 6.1 M56.2 42.05 C39.32 28.72, 21.75 12.12, 7.9 0.06 M56.2 42.05 C40.91 28.14, 24.43 13.14, 7.9 0.06 M56.17 31.42 C48.18 24.39, 38.26 17.67, 19.94 -0.08 M56.17 31.42 C47.3 22.49, 36.73 13.84, 19.94 -0.08 M56.13 20.79 C48.28 14.78, 43.89 11.19, 31.98 -0.21 M56.13 20.79 C46.93 13.76, 38.94 4.63, 31.98 -0.21 M56.1 10.16 C53.15 5.72, 48.55 3.78, 44.02 -0.34 M56.1 10.16 C53.08 7.75, 52.08 6.11, 44.02 -0.34" stroke="#1fb2fe" stroke-width="1" fill="none"></path><path d="M13.08 0 C18.17 0.26, 28.7 1.48, 43.15 0 M13.08 0 C21.55 0.72, 31.1 0.34, 43.15 0 M43.15 0 C50.47 0.71, 57.96 3.9, 56.22 13.08 M43.15 0 C50.86 0.62, 55.8 6.46, 56.22 13.08 M56.22 13.08 C55.69 20.41, 55.12 26.62, 56.22 39.23 M56.22 13.08 C57.13 19.19, 55.35 26.21, 56.22 39.23 M56.22 39.23 C57.07 46.32, 52.37 51.72, 43.15 52.3 M56.22 39.23 C56.8 47.43, 53.55 54.14, 43.15 52.3 M43.15 52.3 C38.23 53.88, 31.12 50.68, 13.08 52.3 M43.15 52.3 C34.77 52.88, 26.75 51.93, 13.08 52.3 M13.08 52.3 C5.05 51.63, -1.39 49.14, 0 39.23 M13.08 52.3 C6.13 54.55, -1.3 48.15, 0 39.23 M0 39.23 C-0.8 31, 1.71 20.17, 0 13.08 M0 39.23 C-0.69 32.86, -0.65 25.54, 0 13.08 M0 13.08 C0.84 3.35, 2.65 1.23, 13.08 0 M0 13.08 C-1.14 2.17, 2.24 -1.3, 13.08 0" stroke="#1e1e1e" stroke-width="2" fill="none"></path></g><g transform="translate(176.30863879353376 104.8743465415701) rotate(0 82.14583587646484 17.5)"><text x="0" y="24.528" font-family="Virgil, Segoe UI Emoji" font-size="28px" fill="#1e1e1e" text-anchor="start" style="white-space: pre;" direction="ltr" dominant-baseline="alphabetic">ScriptGuard</text></g><g transform="translate(163.23333886854095 213.79436332360177) rotate(0 31.55208396911621 17.5)"><text x="0" y="24.528" font-family="Virgil, Segoe UI Emoji" font-size="28px" fill="#1e1e1e" text-anchor="start" style="white-space: pre;" direction="ltr" dominant-baseline="alphabetic">Scan</text></g><g stroke-linecap="round"><g transform="translate(362.54885944646014 196.40638251380074) rotate(0 5.684341886080802e-14 35.77793959938808)"><path d="M-1.01 0.76 C-0.74 12.72, 0.97 59.38, 1.1 71 M0.66 0.12 C0.91 12.29, 1.03 60.39, 0.73 72.24" stroke="#06aafe" stroke-width="2" fill="none"></path></g></g><mask></mask><g transform="translate(158.77654134919123 292.3815784681873) rotate(0 79.69791412353516 17.5)"><text x="0" y="24.528" font-family="Virgil, Segoe UI Emoji" font-size="28px" fill="#99a0a7" text-anchor="start" style="white-space: pre;" direction="ltr" dominant-baseline="alphabetic">MatchCheck</text></g><g transform="translate(164.26949200896354 360.95995202777635) rotate(0 76.85416412353516 15.634010627400158)"><text x="0" y="21.91262929536405" font-family="Virgil, Segoe UI Emoji" font-size="25.014417003840236px" fill="#99a0a7" text-anchor="start" style="white-space: pre;" direction="ltr" dominant-baseline="alphabetic">Code Insight</text></g><g stroke-linecap="round" transform="translate(122.58125370583406 207.93089903683182) rotate(0 15.249671810801232 15.435643418250038)"><path d="M16.6 -0.23 C19.64 -0.18, 23.14 2.39, 25.41 4.77 C27.67 7.14, 29.83 10.75, 30.19 14.04 C30.55 17.32, 29.34 21.83, 27.58 24.47 C25.82 27.11, 22.65 28.96, 19.63 29.88 C16.61 30.8, 12.45 31.21, 9.48 29.99 C6.52 28.77, 3.27 25.57, 1.82 22.57 C0.37 19.57, -0.01 15.36, 0.79 12.01 C1.6 8.66, 4 4.4, 6.66 2.48 C9.32 0.56, 14.79 0.82, 16.75 0.5 C18.71 0.18, 18.35 0.37, 18.43 0.54 M14.48 0.7 C17.49 0.25, 20.94 1.32, 23.63 3.06 C26.33 4.8, 29.73 7.98, 30.63 11.14 C31.52 14.3, 30.51 18.91, 29 22.03 C27.48 25.14, 24.58 28.52, 21.55 29.8 C18.53 31.08, 13.91 30.56, 10.84 29.7 C7.76 28.84, 4.96 27.29, 3.11 24.64 C1.27 21.99, -0.39 17.05, -0.24 13.81 C-0.1 10.58, 1.63 7.47, 3.98 5.24 C6.32 3.02, 12.12 1.18, 13.83 0.45 C15.53 -0.29, 14.12 0.64, 14.23 0.84" stroke="none" stroke-width="0" fill="#f2f6f6"></path><path d="M15.74 -0.06 C18.96 -0.08, 23.42 1.52, 25.92 3.75 C28.43 5.98, 30.44 9.95, 30.79 13.31 C31.14 16.68, 29.86 21.19, 28.02 23.95 C26.17 26.71, 22.86 29, 19.7 29.87 C16.53 30.74, 12.02 30.48, 9.04 29.16 C6.07 27.83, 3.28 24.79, 1.83 21.92 C0.38 19.06, -0.35 15.13, 0.34 11.94 C1.04 8.75, 3.29 4.72, 5.99 2.78 C8.68 0.84, 14.67 0.67, 16.53 0.3 C18.39 -0.06, 17.1 0.44, 17.13 0.58 M13.38 -0.1 C16.63 -0.83, 21.57 0.12, 24.29 2.04 C27.02 3.97, 28.82 8.3, 29.72 11.44 C30.63 14.58, 31.08 17.95, 29.74 20.89 C28.39 23.83, 24.69 27.6, 21.66 29.09 C18.63 30.59, 14.61 30.6, 11.55 29.86 C8.49 29.12, 5.15 27.25, 3.3 24.64 C1.44 22.03, 0.33 17.43, 0.42 14.18 C0.51 10.93, 1.61 7.37, 3.84 5.12 C6.08 2.86, 12.32 1.31, 13.83 0.65 C15.34 -0.01, 12.9 0.96, 12.91 1.14" stroke="#06aafe" stroke-width="1" fill="none"></path></g><g stroke-linecap="round" transform="translate(110.92232434390746 240.25464584843868) rotate(316.4688007143856 9.055326857643536 2.266972173868595)"><path d="M1.13 0 C8.21 1.94, 12.92 -0.25, 16.98 0 C18.31 -0.83, 19.58 -1.61, 18.11 1.13 C18.01 1.46, 17.96 2.34, 18.11 3.4 C18.16 5.46, 19.1 6.13, 16.98 4.53 C12.86 3.28, 6.74 3.93, 1.13 4.53 C-0.45 6.05, 0.27 2.32, 0 3.4 C0.02 2.98, 0.12 2.07, 0 1.13 C0.15 2.29, 2.83 1.77, 1.13 0" stroke="none" stroke-width="0" fill="#f2f6f6"></path><path d="M1.13 0 C5.86 -0.72, 11.41 -0.15, 16.98 0 M1.13 0 C6.43 -0.06, 12.23 -0.04, 16.98 0 M16.98 0 C17.05 -0.41, 17.17 0.75, 18.11 1.13 M16.98 0 C16.63 -0.13, 18.16 0.1, 18.11 1.13 M18.11 1.13 C18.22 1.72, 18.22 2.12, 18.11 3.4 M18.11 1.13 C18.1 1.69, 18.15 2.25, 18.11 3.4 M18.11 3.4 C17.93 4.72, 18.39 3.64, 16.98 4.53 M18.11 3.4 C17.46 3.94, 17.47 3.62, 16.98 4.53 M16.98 4.53 C11.26 4.24, 6.57 4.94, 1.13 4.53 M16.98 4.53 C11.21 4.68, 5.41 4.84, 1.13 4.53 M1.13 4.53 C0.64 4.58, 0.58 4.84, 0 3.4 M1.13 4.53 C-0.22 3.63, 1.09 3.65, 0 3.4 M0 3.4 C0.04 2.51, 0.1 1.89, 0 1.13 M0 3.4 C0.02 2.65, -0.06 1.76, 0 1.13 M0 1.13 C0.73 0.92, 0.26 0.36, 1.13 0 M0 1.13 C-0.32 -0.06, 0.47 0.14, 1.13 0" stroke="#06aafe" stroke-width="1" fill="none"></path></g><g stroke-linecap="round" transform="translate(124.3665811373424 210.088169683237) rotate(0 13.575927343762118 13.389955736313283)"><path d="M11.6 0.38 C14.33 -0.14, 18.03 1.12, 20.54 2.56 C23.05 3.99, 25.66 6.27, 26.65 9 C27.64 11.73, 27.59 16.19, 26.5 18.96 C25.41 21.72, 22.67 24.3, 20.08 25.59 C17.5 26.88, 13.79 27.47, 10.98 26.71 C8.17 25.95, 5.13 23.29, 3.22 21.03 C1.31 18.77, -0.58 15.95, -0.47 13.16 C-0.37 10.37, 1.62 6.49, 3.85 4.28 C6.08 2.07, 11.3 0.55, 12.9 -0.11 C14.5 -0.77, 13.44 -0.01, 13.44 0.31 M17.11 0.1 C19.87 0.48, 22.54 2.97, 24.17 5.34 C25.81 7.71, 27.09 11.59, 26.9 14.31 C26.72 17.04, 24.93 19.6, 23.07 21.7 C21.21 23.8, 18.56 26.48, 15.73 26.92 C12.89 27.36, 8.65 25.8, 6.07 24.34 C3.48 22.88, 1.08 20.75, 0.24 18.14 C-0.6 15.54, -0.22 11.41, 1.01 8.72 C2.25 6.03, 4.96 3.41, 7.62 2.01 C10.29 0.62, 15.46 0.47, 16.99 0.34 C18.51 0.21, 17 0.91, 16.78 1.22" stroke="none" stroke-width="0" fill="#f2f6f6"></path><path d="M13.38 -0.27 C16.1 -0.48, 19.6 1.11, 21.85 2.84 C24.09 4.58, 26.27 7.45, 26.86 10.16 C27.46 12.87, 26.73 16.59, 25.41 19.11 C24.09 21.63, 21.62 24.11, 18.95 25.28 C16.29 26.46, 12.26 27.01, 9.43 26.18 C6.61 25.35, 3.53 22.66, 2 20.28 C0.47 17.9, -0.22 14.66, 0.26 11.9 C0.74 9.14, 2.65 5.77, 4.89 3.72 C7.14 1.67, 12.34 0.2, 13.74 -0.42 C15.14 -1.05, 13.33 -0.32, 13.32 -0.04 M12.52 0.45 C15.24 0.07, 19.77 0.31, 22.07 1.9 C24.37 3.5, 25.74 7.24, 26.33 10.04 C26.92 12.84, 26.76 16.09, 25.59 18.69 C24.43 21.29, 21.92 24.43, 19.35 25.63 C16.79 26.83, 13.1 26.65, 10.2 25.9 C7.31 25.16, 3.62 23.37, 1.98 21.14 C0.35 18.9, 0.16 15.29, 0.42 12.51 C0.68 9.73, 1.47 6.53, 3.56 4.47 C5.64 2.42, 11.32 0.79, 12.92 0.17 C14.52 -0.45, 13.15 0.52, 13.15 0.73" stroke="#06aafe" stroke-width="1" fill="none"></path></g><g stroke-linecap="round" transform="translate(122.02309778131331 291.54222126402175) rotate(0 15.045908526715579 15.22939521606581)"><path d="M16.83 0.01 C19.84 0.32, 23.92 2.89, 26.1 5.34 C28.28 7.79, 29.87 11.56, 29.92 14.72 C29.98 17.89, 28.32 21.73, 26.43 24.31 C24.53 26.89, 21.61 29.44, 18.56 30.22 C15.52 31, 11.13 30.53, 8.17 28.99 C5.2 27.45, 1.94 24.09, 0.77 20.99 C-0.39 17.89, 0.02 13.45, 1.15 10.39 C2.28 7.33, 4.72 4.27, 7.54 2.65 C10.35 1.03, 16.2 0.9, 18.03 0.65 C19.86 0.4, 18.55 0.99, 18.52 1.17 M12.42 0.13 C15.4 -0.81, 20.03 -0.23, 22.72 1.37 C25.41 2.97, 27.57 6.68, 28.56 9.72 C29.55 12.76, 29.46 16.44, 28.66 19.62 C27.85 22.81, 26.42 27.13, 23.74 28.82 C21.06 30.51, 15.79 30.22, 12.58 29.75 C9.36 29.28, 6.66 28.31, 4.44 26 C2.23 23.68, -0.41 19.19, -0.71 15.85 C-1.01 12.51, 0.59 8.63, 2.64 5.93 C4.69 3.23, 10.07 0.46, 11.6 -0.35 C13.13 -1.16, 11.73 0.65, 11.8 1.09" stroke="none" stroke-width="0" fill="#f2f6f6"></path><path d="M16.59 -0.12 C19.72 0.01, 23.82 2.35, 26.03 4.72 C28.24 7.09, 29.63 10.83, 29.84 14.1 C30.05 17.37, 29.01 21.77, 27.28 24.36 C25.54 26.95, 22.58 28.81, 19.43 29.63 C16.28 30.46, 11.42 30.65, 8.36 29.31 C5.3 27.96, 2.3 24.53, 1.05 21.55 C-0.19 18.56, -0.07 14.59, 0.89 11.4 C1.85 8.21, 4.24 4.37, 6.82 2.41 C9.39 0.45, 14.68 -0.1, 16.34 -0.34 C18.01 -0.59, 16.73 0.64, 16.81 0.93 M11.82 0.5 C14.65 -0.42, 18.47 0.21, 21.25 1.57 C24.03 2.93, 27.16 5.6, 28.5 8.67 C29.84 11.73, 30.23 16.77, 29.29 19.96 C28.35 23.14, 25.4 26.18, 22.84 27.79 C20.28 29.41, 17 29.85, 13.93 29.63 C10.86 29.42, 6.67 28.83, 4.43 26.5 C2.19 24.17, 0.67 19.12, 0.51 15.66 C0.35 12.21, 1.78 8.23, 3.49 5.77 C5.19 3.32, 9.48 1.84, 10.76 0.91 C12.03 -0.01, 10.95 0.04, 11.15 0.25" stroke="#99a0a7" stroke-width="1" fill="none"></path></g><g stroke-linecap="round" transform="translate(110.51995286938552 323.43406417067905) rotate(316.4688007143856 8.934331261025164 2.236681312477657)"><path d="M1.12 0 C5.94 -1.29, 13.53 -2.13, 16.75 0 C16.61 2.32, 20.32 -1.14, 17.87 1.12 C17.61 1.63, 17.69 2.13, 17.87 3.36 C16.97 1.69, 17.07 6.03, 16.75 4.47 C10.99 6.03, 8.6 6.5, 1.12 4.47 C1.32 5.79, 2.18 3.15, 0 3.36 C0.09 2.97, 0.09 2.38, 0 1.12 C-0.4 0, 0.68 0.95, 1.12 0" stroke="none" stroke-width="0" fill="#f2f6f6"></path><path d="M1.12 0 C4.68 -0.19, 8.69 -0.3, 16.75 0 M1.12 0 C7.21 -0.07, 13.25 0.37, 16.75 0 M16.75 0 C16.92 -0.76, 18.37 -0.39, 17.87 1.12 M16.75 0 C17.1 0.9, 18 1.4, 17.87 1.12 M17.87 1.12 C17.78 1.73, 17.91 2.08, 17.87 3.36 M17.87 1.12 C17.91 1.57, 17.85 2.02, 17.87 3.36 M17.87 3.36 C17.51 3.66, 17.19 5.23, 16.75 4.47 M17.87 3.36 C16.87 4.04, 18.13 3.33, 16.75 4.47 M16.75 4.47 C10.99 5.19, 6.07 3.89, 1.12 4.47 M16.75 4.47 C11.21 4.53, 5.45 4.58, 1.12 4.47 M1.12 4.47 C0.95 4.68, -0.1 3.33, 0 3.36 M1.12 4.47 C0.03 4.06, 0.55 3.73, 0 3.36 M0 3.36 C0.11 2.73, 0.07 2.14, 0 1.12 M0 3.36 C-0.01 2.86, 0.04 2.29, 0 1.12 M0 1.12 C0.74 0.35, 1.26 0.44, 1.12 0 M0 1.12 C-0.12 -0.61, 1.14 0.2, 1.12 0" stroke="#99a0a7" stroke-width="1" fill="none"></path></g><g stroke-linecap="round" transform="translate(123.78456999907502 293.67066686048315) rotate(0 13.394528322563929 13.21104163321371)"><path d="M12.24 -0.02 C14.91 -0.49, 18.36 0.45, 20.8 2.13 C23.23 3.81, 26.03 7.18, 26.85 10.04 C27.66 12.9, 27.09 16.75, 25.71 19.3 C24.34 21.86, 21.2 24.3, 18.6 25.39 C16.01 26.49, 12.79 26.6, 10.15 25.87 C7.5 25.14, 4.38 23.29, 2.72 21.02 C1.06 18.75, -0.03 15.06, 0.19 12.26 C0.41 9.45, 1.92 6.24, 4.04 4.19 C6.16 2.14, 11.5 0.56, 12.92 -0.03 C14.34 -0.63, 12.59 0.31, 12.58 0.6 M12.01 0.29 C14.48 -0.06, 18.01 0.51, 20.51 2.24 C23.02 3.98, 26.3 7.99, 27.05 10.68 C27.8 13.38, 26.29 15.88, 25.02 18.4 C23.74 20.92, 22.08 24.53, 19.42 25.79 C16.75 27.05, 11.96 26.8, 9.02 25.95 C6.08 25.09, 3.33 23.12, 1.8 20.66 C0.26 18.2, -0.55 13.92, -0.19 11.18 C0.17 8.43, 1.86 5.96, 3.94 4.19 C6.01 2.41, 10.83 1.25, 12.27 0.52 C13.71 -0.21, 12.44 -0.39, 12.57 -0.21" stroke="none" stroke-width="0" fill="#f2f6f6"></path><path d="M12.04 0.3 C14.66 -0.08, 18.5 1.3, 20.95 2.83 C23.41 4.36, 26.07 6.8, 26.77 9.5 C27.47 12.21, 26.5 16.46, 25.15 19.05 C23.8 21.63, 21.14 23.85, 18.67 25.01 C16.2 26.18, 12.95 26.8, 10.32 26.03 C7.68 25.26, 4.65 22.81, 2.87 20.41 C1.09 18.01, -0.48 14.29, -0.37 11.61 C-0.25 8.94, 1.32 6.31, 3.56 4.34 C5.8 2.38, 11.51 0.49, 13.08 -0.17 C14.66 -0.82, 13.04 0.11, 13 0.41 M13.3 -0.33 C16.05 -0.37, 19.8 1.88, 21.91 3.77 C24.02 5.67, 25.4 8.48, 25.97 11.05 C26.53 13.63, 26.65 16.68, 25.32 19.23 C23.99 21.77, 20.68 25.4, 17.98 26.35 C15.28 27.29, 11.72 26.1, 9.12 24.89 C6.51 23.69, 3.92 21.41, 2.34 19.12 C0.76 16.84, -0.75 13.97, -0.37 11.19 C0.01 8.42, 2.28 4.3, 4.63 2.47 C6.99 0.64, 12.28 0.53, 13.76 0.22 C15.24 -0.1, 13.47 0.37, 13.51 0.58" stroke="#99a0a7" stroke-width="1" fill="none"></path></g><g stroke-linecap="round"><g stroke-opacity="0.9" fill-opacity="0.9" transform="translate(126.09674006106508 306.6040542456675) rotate(0 11.342140602849128 0)"><path d="M0.21 -0.51 C4.04 -0.52, 18.89 0.05, 22.64 0.22 M-0.35 0.42 C3.43 0.22, 18.4 -0.51, 22.19 -0.64" stroke="#99a0a7" stroke-width="1" fill="none"></path></g></g><mask></mask><g stroke-linecap="round"><g stroke-opacity="0.9" fill-opacity="0.9" transform="translate(128.84251886286842 298.2866713846514) rotate(0 7.899628075129584 1.3973827052077752)"><path d="M0 0 C0.07 0.2, 0.05 0.85, 0.42 1.23 C0.78 1.6, 1.51 1.98, 2.21 2.26 C2.91 2.53, 3.58 2.77, 4.6 2.88 C5.62 2.99, 6.99 2.99, 8.34 2.94 C9.69 2.88, 11.56 2.85, 12.71 2.54 C13.86 2.23, 14.74 1.54, 15.26 1.1 C15.77 0.65, 15.71 0.06, 15.8 -0.14 M0 0 C0.07 0.2, 0.05 0.85, 0.42 1.23 C0.78 1.6, 1.51 1.98, 2.21 2.26 C2.91 2.53, 3.58 2.77, 4.6 2.88 C5.62 2.99, 6.99 2.99, 8.34 2.94 C9.69 2.88, 11.56 2.85, 12.71 2.54 C13.86 2.23, 14.74 1.54, 15.26 1.1 C15.77 0.65, 15.71 0.06, 15.8 -0.14" stroke="#99a0a7" stroke-width="1" fill="none"></path></g></g><mask></mask><g stroke-opacity="0.9" fill-opacity="0.9" stroke-linecap="round" transform="translate(133.1934031849396 294.5625287532142) rotate(0 4.183993381274121 12.076956279576464)"><path d="M3.87 0.08 C4.75 -0.44, 5.69 0.67, 6.4 2.09 C7.1 3.5, 7.75 6.17, 8.1 8.58 C8.46 10.99, 8.76 14.15, 8.52 16.53 C8.28 18.91, 7.55 21.61, 6.66 22.85 C5.77 24.09, 4.08 24.46, 3.19 23.96 C2.3 23.47, 1.78 22.01, 1.32 19.91 C0.85 17.8, 0.51 13.93, 0.4 11.34 C0.29 8.75, 0.15 6.18, 0.67 4.37 C1.19 2.56, 2.89 1.12, 3.51 0.48 C4.14 -0.17, 4.43 0.36, 4.44 0.51 M4.26 0.8 C5.08 1.21, 6.54 2.89, 7.16 4.77 C7.78 6.64, 7.94 9.59, 7.98 12.05 C8.01 14.52, 7.91 17.52, 7.36 19.54 C6.8 21.56, 5.57 23.75, 4.66 24.18 C3.76 24.61, 2.72 23.48, 1.91 22.11 C1.11 20.73, 0.17 18.14, -0.15 15.92 C-0.48 13.7, -0.43 11.11, -0.04 8.78 C0.35 6.46, 1.42 3.28, 2.18 1.95 C2.95 0.62, 4.05 0.95, 4.53 0.81 C5.02 0.67, 4.97 0.95, 5.08 1.11" stroke="#99a0a7" stroke-width="1" fill="none"></path></g><g stroke-linecap="round"><g stroke-opacity="0.9" fill-opacity="0.9" transform="translate(129.65943716105272 315.3892047236622) rotate(0 7.899628075129584 -1.4426135097784254)"><path d="M0 0 C0.37 -0.39, 1.44 -1.83, 2.21 -2.33 C2.98 -2.82, 3.58 -2.86, 4.6 -2.97 C5.62 -3.09, 6.99 -3.09, 8.34 -3.03 C9.69 -2.97, 11.56 -2.94, 12.71 -2.62 C13.86 -2.3, 14.74 -1.59, 15.26 -1.13 C15.77 -0.67, 15.71 -0.07, 15.8 0.15 M0 0 C0.37 -0.39, 1.44 -1.83, 2.21 -2.33 C2.98 -2.82, 3.58 -2.86, 4.6 -2.97 C5.62 -3.09, 6.99 -3.09, 8.34 -3.03 C9.69 -2.97, 11.56 -2.94, 12.71 -2.62 C13.86 -2.3, 14.74 -1.59, 15.26 -1.13 C15.77 -0.67, 15.71 -0.07, 15.8 0.15" stroke="#99a0a7" stroke-width="1" fill="none"></path></g></g><mask></mask><g stroke-linecap="round" transform="translate(118.08513355525764 360.27866637491513) rotate(0 17.96072975577647 15)"><path d="M7.5 0 C12.68 2.49, 22.15 -0.43, 28.42 0 C31.23 -2.34, 37.01 0.97, 35.92 7.5 C34.61 9.2, 34.3 16.83, 35.92 22.5 C33.4 28.65, 32.95 26.73, 28.42 30 C24.9 29.8, 21.33 29.12, 7.5 30 C2.91 28.32, 0.46 29.85, 0 22.5 C-2.22 17.58, 0.13 12.84, 0 7.5 C0.29 -0.21, 3.62 3.52, 7.5 0" stroke="none" stroke-width="0" fill="#f2f6f6"></path><path d="M7.5 0 C11.71 1.49, 18.81 0.96, 28.42 0 M7.5 0 C12.77 0.75, 20.16 -0.35, 28.42 0 M28.42 0 C35 0.02, 37.16 4.34, 35.92 7.5 M28.42 0 C32.99 -0.59, 37.19 2.55, 35.92 7.5 M35.92 7.5 C36.82 12.93, 35.61 17.22, 35.92 22.5 M35.92 7.5 C36.1 11.42, 36.16 14.36, 35.92 22.5 M35.92 22.5 C35.19 27.06, 35.08 30.1, 28.42 30 M35.92 22.5 C36.71 26.4, 35.14 29.07, 28.42 30 M28.42 30 C21.73 30.32, 18.1 31.59, 7.5 30 M28.42 30 C21.35 30.02, 14.77 29.17, 7.5 30 M7.5 30 C1.58 28.1, -0.79 26.69, 0 22.5 M7.5 30 C1.9 31.32, -1.35 29.23, 0 22.5 M0 22.5 C0.31 17.4, -0.23 11.6, 0 7.5 M0 22.5 C0.22 17, -0.65 11.44, 0 7.5 M0 7.5 C-1.18 3.96, 2.73 0.87, 7.5 0 M0 7.5 C2.17 3.12, 4.22 -0.33, 7.5 0" stroke="#99a0a7" stroke-width="2" fill="none"></path></g><g transform="translate(126.472946326476 365.27866637491513) rotate(0 9.572916984558105 10)"><text x="9.572916984558105" y="14.016" font-family="Virgil, Segoe UI Emoji" font-size="16px" fill="#99a0a7" text-anchor="middle" style="white-space: pre;" direction="ltr" dominant-baseline="alphabetic">AI</text></g></svg>